<svg width="115" height="115" viewBox="0 0 115 115" fill="none" xmlns="http://www.w3.org/2000/svg">
<circle cx="57.5" cy="57.5" r="57" fill="white" stroke="white"/>
<path d="M61.3711 49.2793V54.0887" stroke="#292935" stroke-linecap="round"/>
<path d="M58.6719 49.2793V54.6752" stroke="#292935" stroke-linecap="round"/>
<path d="M40.375 62.6504L49.29 62.6504" stroke="#292935" stroke-linecap="round"/>
<path d="M56.0938 50.2168V53.9705" stroke="#292935" stroke-linecap="round"/>
<path d="M75.5 60H77V71H42C40.6667 70.8333 38 69.6 38 66C38 62.4 38 60.5 38 60H67M75.5 60V58H73.5M75.5 60H67M67 60V58H70.5M70.5 58C70.5 52.5 69.5 47 60.5 47C57.3 47 55.8333 47 55.5 47V44H61.5C70.5 44 73.5 49 73.5 58M70.5 58H73.5" stroke="#292935"/>
</svg>
