<svg width="80" height="80" viewBox="0 0 80 80" fill="none" xmlns="http://www.w3.org/2000/svg">
<path d="M40 79.9998C62.069 79.9998 80 62.1074 80 40.0859C80 18.0643 62.069 0.171875 40 0.171875C17.931 0.171875 0 18.0643 0 40.0859C0 62.1074 17.931 79.9998 40 79.9998Z" fill="#3D250B"/>
<path d="M32.9657 13.2812C27.414 25.0834 17.0347 30.8296 13.3105 32.5845C15.9312 23.1909 23.483 15.7587 32.9657 13.2812Z" fill="#3D250B"/>
<path d="M29.5522 29.5566C26.2073 33.5824 20.4832 39.0534 12.3108 42.3566C12.2418 41.5997 12.1729 40.8427 12.1729 40.0857C12.1729 40.0857 12.1729 39.948 12.1729 39.8792C14.6901 38.8126 23.1729 34.9588 29.5522 29.5566Z" fill="#3D250B"/>
<path d="M39.7588 25.7031C37.9657 32.344 32.3795 44.2494 14.7588 51.716C14.3795 50.9246 14.0347 50.0644 13.7588 49.2042C17.1381 48.0687 32.5519 42.1848 39.7588 25.7031Z" fill="#3D250B"/>
<path d="M52.0693 33.0668C52.0693 54.5721 32.1728 63.1743 27.5865 64.8603C26.8624 64.5162 26.2072 64.1033 25.5176 63.656C47.3107 54.7098 51.0693 37.1958 51.69 31.6904C51.8624 31.8625 51.9659 31.9657 52.0348 32.0345C52.0348 32.413 52.0693 32.7571 52.0693 33.0668Z" fill="#3D250B"/>
<path d="M45.7585 29.3848C43.3102 49.3073 23.0344 57.3934 19.3792 58.6665C19.0344 58.2536 18.6896 57.8407 18.3447 57.4278C36.1723 51.9912 43.2758 36.9202 45.7585 29.3848Z" fill="#3D250B"/>
<path d="M58.0007 38.125C58.0697 38.1938 58.1387 38.2626 58.1732 38.297C58.2766 38.7788 58.5525 40.396 58.5525 42.6669C58.5525 49.0669 56.2766 60.7659 41.1042 67.7852C40.9318 67.7852 40.0007 67.8196 40.0007 67.8196C39.0697 67.8196 38.1042 67.7508 37.1387 67.6476C41.8628 65.2734 56.6214 56.4304 58.0007 38.125Z" fill="#3D250B"/>
<path d="M64.8628 45.557C64.8628 45.4882 64.8628 45.4194 64.8628 45.3506C65.6904 46.1764 66.6214 47.1054 66.8628 47.3463C65.9318 50.8216 64.3111 54.056 62.1387 56.8775C64.4835 52.3011 64.8628 47.828 64.8628 45.557Z" fill="#3D250B"/>
<path d="M49.4475 13.97L49.9648 14.1765L50.551 14.4173L51.0337 14.6238C60.7579 18.8216 67.2061 28.2152 67.7234 38.7098C66.1372 37.0926 43.4475 14.0733 41.8613 12.4561C44.482 12.5937 47.0337 13.1098 49.4475 13.97Z" fill="#3D250B"/>
<path d="M39.6556 0C17.8625 0 0.172852 17.6172 0.172852 39.3634C0.172852 61.1097 17.828 78.7269 39.6556 78.7269C61.4487 78.7269 79.1039 61.1097 79.1039 39.3634C79.1039 17.6172 61.4487 0 39.6556 0ZM49.828 13.0753C50.0349 13.1441 50.2418 13.2129 50.4142 13.3161C50.5866 13.3849 50.7591 13.4538 50.9315 13.5226C60.9315 17.8581 67.9315 27.7333 67.966 39.2946L40.3108 11.2172C43.4487 11.286 46.4487 11.871 49.2763 12.8688C49.4487 12.9376 49.6556 13.0065 49.828 13.0753ZM33.2073 11.9742L33.4142 12.1806C27.2763 25.9441 14.4832 31.8624 12.1729 32.8258C14.6556 22.5032 22.828 14.3828 33.2073 11.9742ZM11.3797 39.4323C11.3797 39.2602 11.3797 39.0882 11.3797 38.8817C13.966 37.8151 27.2763 31.9312 33.3108 23.9828C33.3108 23.9828 26.3797 36.6796 11.5177 42.3914C11.4487 41.4624 11.3797 40.4301 11.3797 39.4323ZM14.2073 51.6817C13.6556 50.5807 13.2073 49.4108 12.828 48.2409C15.3108 47.4839 34.5177 41.0151 40.7935 20.1634C40.7591 20.1634 40.6211 40.7398 14.2073 51.6817ZM17.1728 56.5333C39.1728 50.271 45.0004 29.2817 46.0004 24.9118L46.1728 25.0839C45.9315 48.6194 22.2073 57.4624 18.897 58.5634C18.3108 57.9441 17.7246 57.2559 17.1728 56.5333ZM24.1039 63.0022C48.0694 53.643 50.6901 33.9957 51.0004 30.0043L52.2073 31.243C53.0004 54.4688 31.0004 63.4151 27.2073 64.7914C26.1384 64.2409 25.1039 63.6559 24.1039 63.0022ZM40.9315 67.6473C40.5177 67.6817 40.1039 67.6817 39.6901 67.6817C38.2763 67.6817 36.9315 67.5785 35.5866 67.372C35.4487 67.3376 35.3108 67.3032 35.2073 67.2344C35.2073 67.2344 56.2763 58.8387 57.3108 36.4043L58.3108 37.4366C58.5177 38.4 62.5522 57.6344 40.9315 67.6473ZM57.8625 61.0409C65.0004 53.3677 63.966 43.4925 63.966 43.4925L67.0349 46.5548C65.5522 52.3011 62.3108 57.3247 57.8625 61.0409Z" fill="url(#paint0_linear_834_6392)"/>
<path d="M76.4143 46.4171C76.897 44.0085 77.1384 41.5655 77.1384 39.0193C77.1384 17.9956 60.0005 0.894531 38.9315 0.894531C17.8625 0.894531 0.724609 17.9956 0.724609 39.0193C0.724609 60.0429 17.8625 77.144 38.9315 77.144C57.3108 77.144 72.6556 64.1375 76.3108 46.8988L76.5867 46.6236L76.4143 46.4171ZM39.6901 9.77195C42.897 9.84077 46.0349 10.4257 49.0005 11.4924L49.5522 11.6988L50.1729 11.9397L50.6901 12.1461C61.4143 16.7913 68.3453 27.2859 68.4143 38.9504V41.4623L52.1384 25.2214L36.8625 9.70313L39.6901 9.77195ZM10.4487 32.2408C13.0005 21.6085 21.5522 13.1096 32.2418 10.5633L33.8625 12.1806L33.7936 12.2838C27.5177 26.3913 14.5177 32.4472 11.966 33.5483L9.89702 34.4085L10.4487 32.2408ZM9.65564 40.6021C9.58668 39.673 9.58668 38.6408 9.65564 37.815L10.3108 37.5053C11.9315 36.8171 17.7936 34.2365 23.3453 30.4859C33.7591 22.8816 36.2418 14.83 36.2418 14.83C36.2418 14.83 36.9315 25.187 24.035 35.4064C20.4487 38.5031 15.8625 41.3935 9.9315 43.6988C9.75909 43.3203 9.69013 41.944 9.65564 40.6021ZM13.0005 52.8171L12.5522 51.8537C12.0005 50.7182 11.5177 49.5139 11.1039 48.2752L10.7246 47.1741L11.8281 46.83C13.5177 46.3139 25.5177 42.3569 33.5522 30.83C33.4487 30.9332 33.3798 30.9676 33.3798 30.9676C33.9315 30.2107 34.4143 29.4881 34.8625 28.7655C35.8281 27.1827 36.7246 25.4623 37.5177 23.6042C39.035 19.6816 38.7936 17.4107 38.7936 17.4107L41.2074 19.8193C41.2074 20.0257 40.7591 41.2558 13.966 52.3698L13.0005 52.8171ZM17.9315 59.5612L17.4487 59.0107C16.8281 58.3569 16.2418 57.6343 15.6556 56.8773L14.6556 55.5698L16.2418 55.1225C37.6556 49.0322 43.3453 28.4214 44.2763 24.3612L44.6212 22.8816L46.6901 24.9461C46.3108 49.2386 21.4832 58.3569 18.6556 59.3203L17.9315 59.5612ZM26.4832 65.6859L26.035 65.4795C24.9315 64.9289 23.8281 64.3096 22.7936 63.6214L20.966 62.4171L23.0005 61.6257C46.3798 52.5074 48.897 33.3418 49.1729 29.5913L49.3108 27.6644L52.6556 31.0021C53.3798 54.744 31.3453 63.9311 26.897 65.5139L26.4832 65.6859ZM40.5522 68.4386L39.0349 68.473C38.5177 68.473 38.035 68.4386 37.5177 68.4386C35.5177 68.2666 33.6556 67.7849 32.5177 67.4064L31.2418 66.959L34.1384 65.858C34.3453 65.7892 54.5522 57.4623 55.5177 35.9913L55.6212 33.858L58.828 37.058C59.3108 39.5354 62.2418 58.4257 40.7936 68.301L40.5522 68.4386ZM62.6901 56.6021C56.966 64.3784 49.2418 66.7182 49.2418 66.7182C62.9315 57.0494 62.0694 42.1504 61.897 40.2924V40.1547L67.6556 45.901C66.7246 50.2365 64.8625 53.7806 62.6901 56.6021Z" fill="white"/>
<path d="M77.1379 46.7609C77.6207 44.3523 77.862 41.9092 77.862 39.363C77.862 18.3394 60.7241 1.23828 39.6551 1.23828C18.5862 1.23828 1.44824 18.3394 1.44824 39.363C1.44824 60.3867 18.5862 77.4877 39.6551 77.4877C58.0344 77.4877 73.3793 64.4813 77.0344 47.2426L77.3103 46.9673L77.1379 46.7609ZM40.3448 10.0813C43.5517 10.1501 46.6896 10.7351 49.6551 11.8017L50.2069 12.0082L50.8275 12.249L51.3448 12.4555C62.0689 17.1006 69 27.5953 69.0689 39.2598V41.7372L52.7931 25.4963L37.5172 9.97807L40.3448 10.0813ZM11.0689 32.5501C13.6207 21.9179 22.1724 13.4189 32.862 10.8727L34.4827 12.4899L34.4482 12.5931C28.1724 26.7351 15.1724 32.791 12.6207 33.8576L10.5517 34.7179L11.0689 32.5501ZM10.3103 40.9458C10.2413 40.0168 10.2413 38.9845 10.3103 38.1587L10.9655 37.849C12.5862 37.1609 18.4482 34.5802 24 30.8297C34.4138 23.2598 36.8965 15.2082 36.8965 15.2082C36.8965 15.2082 37.5862 25.5652 24.6896 35.7845C21.1034 38.8125 16.5172 41.7028 10.5862 44.0082C10.3793 43.6297 10.3103 42.2533 10.3103 40.9458ZM13.6207 53.1609L13.1724 52.1974C12.6207 51.0619 12.1379 49.8576 11.7241 48.6189L11.3793 47.5179L12.4827 47.1738C14.1724 46.6576 26.1724 42.7006 34.2069 31.1738C34.1034 31.277 34.0344 31.3114 34.0344 31.3114C34.5862 30.5544 35.0689 29.8318 35.5172 29.1092C36.4827 27.5265 37.3793 25.806 38.1724 23.948C39.6896 20.0254 39.4482 17.7544 39.4482 17.7544L41.862 20.163C41.862 20.3695 41.4138 41.5996 14.6207 52.7135L13.6207 53.1609ZM18.5517 59.8705L18.0689 59.32C17.4482 58.6662 16.862 57.9437 16.2758 57.1867L15.2758 55.8791L16.862 55.4318C38.2758 49.3415 43.9655 28.7308 44.8965 24.6705L45.2413 23.191L47.3103 25.2555C46.931 49.548 22.1034 58.6662 19.2758 59.6297L18.5517 59.8705ZM27.1379 65.9953L26.6896 65.7888C25.5862 65.2383 24.4827 64.6189 23.4482 63.9308L21.6207 62.7265L23.6551 61.9351C47.0344 52.8168 49.5517 33.6512 49.8275 29.9006L49.9655 27.9738L53.3103 31.3114C54.0344 55.0533 32 64.2404 27.5517 65.8232L27.1379 65.9953ZM41.1724 68.748L39.6551 68.7824C39.1379 68.7824 38.6551 68.748 38.1379 68.748C36.1379 68.5759 34.2758 68.0942 33.1379 67.7157L31.862 67.2684L34.7586 66.1673C34.9655 66.0985 55.1724 57.7716 56.1379 36.3351L56.2413 34.2017L59.4482 37.4017C59.931 39.8791 62.862 58.7351 41.4138 68.6447L41.1724 68.748ZM63.3448 56.9458C57.6207 64.7221 49.8965 67.0619 49.8965 67.0619C63.5862 57.3931 62.7241 42.4942 62.5517 40.6361V40.4985L68.3103 46.2447C67.3448 50.5802 65.5172 54.0899 63.3448 56.9458Z" fill="url(#paint1_linear_834_6392)"/>
<path d="M63.8625 43.6985L63.3798 43.2168C63.3798 43.2168 64.5177 53.3673 56.7246 61.7975C56.7246 61.7975 63.7591 55.7415 63.8625 43.6985Z" fill="url(#paint2_linear_834_6392)"/>
<path d="M4.41406 41.841V40.6023L5.96579 40.0862L4.41406 39.6045V38.4346L7.31062 39.6389C7.55199 39.7421 7.72441 39.8109 7.82786 39.8797C7.93131 39.9485 8.03475 40.0518 8.10372 40.2238C8.17268 40.3615 8.20717 40.5679 8.20717 40.8432C8.20717 40.9808 8.20717 41.2217 8.17268 41.5313H7.41406C7.44855 41.3249 7.44855 41.1873 7.44855 41.1184C7.44855 40.8432 7.3451 40.7055 7.1382 40.6367L4.41406 41.841Z" fill="white" stroke="white" stroke-width="0.2" stroke-linecap="round" stroke-linejoin="round"/>
<path d="M8.48273 34.6842L8.3448 35.9917L7.34479 36.3358C7.10342 36.4046 6.96548 36.4735 6.89652 36.5423C6.82755 36.6111 6.79307 36.6799 6.79307 36.7831L8.27583 36.9208L8.17238 38.0563L4.44824 37.6778L4.55169 36.5423L5.96548 36.6799C5.96548 36.5767 5.931 36.5079 5.89652 36.4391C5.82755 36.3702 5.65514 36.267 5.34479 36.1294C5.1379 36.0262 4.96548 35.9229 4.86204 35.8197C4.75859 35.7165 4.7241 35.5788 4.68962 35.3724C4.65514 35.1659 4.68962 34.8563 4.7241 34.4434L5.51721 34.5122V34.581C5.48273 34.7874 5.51721 34.9251 5.58617 35.0283C5.65514 35.1315 5.75859 35.2348 5.931 35.3036C6.10342 35.3724 6.20686 35.4756 6.27583 35.5444C6.34479 35.6133 6.41376 35.7165 6.44824 35.8541C6.51721 35.6821 6.62066 35.5444 6.75859 35.4412C6.89652 35.338 7.1379 35.2348 7.41376 35.0971L8.48273 34.6842Z" fill="white" stroke="white" stroke-width="0.2" stroke-linecap="round" stroke-linejoin="round"/>
<path d="M4.89648 33.6177L5.31028 31.7596C5.41373 31.3467 5.55166 31.0714 5.79304 30.8994C6.03442 30.7273 6.34476 30.6929 6.68959 30.7617C7.0689 30.8306 7.31028 31.0026 7.48269 31.2779C7.65511 31.5531 7.65511 31.8972 7.58614 32.3445L7.44821 32.9639L8.79304 33.2736L8.55166 34.4091L4.89648 33.6177ZM6.68959 32.8263L6.75855 32.551C6.79304 32.3445 6.79304 32.1725 6.75855 32.0693C6.68959 31.966 6.62062 31.8972 6.48269 31.8628C6.37924 31.8284 6.27579 31.8628 6.17235 31.8972C6.0689 31.966 5.99993 32.1037 5.96545 32.3101L5.89648 32.6198L6.68959 32.8263Z" fill="white" stroke="white" stroke-width="0.2" stroke-linecap="round" stroke-linejoin="round"/>
<path d="M9.41349 28.7995L8.9997 30.0383L9.51694 30.4167L9.13763 31.5178L6.03418 29.006L6.44797 27.8017L10.448 27.6641L10.0687 28.7995H9.41349ZM8.5859 28.7651L7.17211 28.7307L8.31004 29.5565L8.5859 28.7651Z" fill="white" stroke="white" stroke-width="0.2" stroke-linecap="round" stroke-linejoin="round"/>
<path d="M6.27539 25.8064L6.55125 25.1871L7.13746 25.4623L6.8616 26.0817L6.27539 25.8064ZM6.72367 24.843L6.99953 24.2236L7.58573 24.4989L7.30987 25.1183L6.72367 24.843ZM7.20642 25.9097L7.68918 24.843L11.103 26.357L10.6202 27.4236L7.20642 25.9097Z" fill="white" stroke="white" stroke-width="0.2" stroke-linecap="round" stroke-linejoin="round"/>
<path d="M8.10352 23.9142L8.65524 22.9163L9.79317 23.5701L10.4139 22.469L9.27593 21.8152L9.86214 20.8174L13.1035 22.641L12.5173 23.6389L11.207 22.8819L10.5863 23.983L11.8966 24.74L11.3104 25.7378L8.10352 23.9142Z" fill="white" stroke="white" stroke-width="0.2" stroke-linecap="round" stroke-linejoin="round"/>
<path d="M13.725 19.2346L14.5871 18.6152C14.7595 18.8561 14.8974 19.0625 14.9664 19.3034C15.0353 19.5442 15.0353 19.7507 15.0009 19.9915C14.9319 20.2324 14.8284 20.4733 14.6215 20.7485C14.3802 21.0582 14.1388 21.2991 13.8974 21.4367C13.656 21.5743 13.3457 21.6088 13.0009 21.6088C12.656 21.5743 12.2767 21.4367 11.9319 21.1614C11.4491 20.7829 11.1388 20.37 11.0698 19.9227C11.0009 19.4754 11.1388 18.9937 11.5181 18.512C11.794 18.1335 12.1043 17.8926 12.4146 17.7894C12.725 17.6862 13.0698 17.6862 13.4836 17.8238L13.0698 18.7872C12.9664 18.7528 12.8629 18.7184 12.794 18.7184C12.6905 18.7184 12.5871 18.7528 12.4836 18.7872C12.3802 18.8217 12.3112 18.8905 12.2422 18.9937C12.0698 19.2002 12.0353 19.441 12.1388 19.6475C12.2078 19.8195 12.3802 20.026 12.6215 20.198C12.9664 20.4389 13.2078 20.5765 13.4146 20.5421C13.6215 20.5421 13.794 20.4389 13.9319 20.2668C14.0698 20.0948 14.1043 19.9227 14.0698 19.7507C13.9664 19.5786 13.8629 19.4066 13.725 19.2346Z" fill="white" stroke="white" stroke-width="0.2" stroke-linecap="round" stroke-linejoin="round"/>
<path d="M14.9311 16.6198L15.3449 16.1725C15.7242 15.7596 16.1035 15.5187 16.4483 15.4843C16.7932 15.4155 17.1035 15.5532 17.4139 15.8284C17.6552 16.0693 17.7587 16.3445 17.7242 16.6542C17.6897 16.9639 17.4828 17.2736 17.1725 17.6177L15.7932 19.0628L13.1035 16.4822L13.8966 15.6564L14.9311 16.6198ZM16.0345 17.6521L16.4483 17.2392C16.6897 16.9639 16.7242 16.7575 16.5518 16.5854C16.3794 16.4134 16.1725 16.4822 15.9311 16.723L15.5173 17.1359L16.0345 17.6521Z" fill="white" stroke="white" stroke-width="0.2" stroke-linecap="round" stroke-linejoin="round"/>
<path d="M21.1035 14.142L20.1035 14.9679L19.138 14.5205C18.8966 14.4173 18.7587 14.3485 18.6897 14.3485C18.6208 14.3485 18.5173 14.3829 18.4483 14.4517L19.3794 15.5872L18.4828 16.3098L16.1035 13.4195L17.0001 12.6969L17.9311 13.798C18.0001 13.7291 18.0345 13.6603 18.0345 13.5571C18.0345 13.4539 17.9656 13.2818 17.8621 12.9377C17.7932 12.6969 17.7242 12.5248 17.7587 12.3872C17.7587 12.2496 17.8277 12.1119 17.9656 11.9399C18.1035 11.7679 18.3104 11.5614 18.6552 11.2861L19.1725 11.9055L19.138 11.9399C19.0001 12.0775 18.8966 12.1808 18.8621 12.3184C18.8277 12.4216 18.8621 12.5937 18.8966 12.7313C18.9656 12.9033 19.0001 13.041 19.0001 13.1442C19.0001 13.2474 18.9656 13.3506 18.8966 13.4883C19.069 13.4195 19.2414 13.4195 19.4139 13.4195C19.5863 13.4539 19.8277 13.5227 20.1035 13.6603L21.1035 14.142Z" fill="white" stroke="white" stroke-width="0.2" stroke-linecap="round" stroke-linejoin="round"/>
<path d="M22.345 8.94629L24.345 12.0775L23.414 12.6624L22.3105 10.942L22.2416 13.4194L21.3105 14.0044L19.3105 10.8388L20.2416 10.2538L21.345 12.0087L21.414 9.49683L22.345 8.94629Z" fill="white" stroke="white" stroke-width="0.2" stroke-linecap="round" stroke-linejoin="round"/>
<path d="M26.5512 6.88188L28.1375 10.2539L27.1375 10.7012L26.2754 8.84317L25.8616 11.3206L24.8616 11.7679L23.2754 8.39586L24.2754 7.94855L25.1375 9.80661L25.5512 7.32919L26.5512 6.88188ZM25.3788 6.43457C25.4478 6.64102 25.4133 6.84747 25.3099 7.01952C25.2064 7.22597 25.0685 7.3636 24.8271 7.46683C24.6202 7.57005 24.4133 7.60446 24.2064 7.53565C23.9995 7.50124 23.8271 7.3636 23.7237 7.19156L24.1375 7.01952C24.2754 7.19156 24.4823 7.22597 24.6892 7.12274C24.9306 7.01952 25.034 6.84747 24.9995 6.64102L25.3788 6.43457Z" fill="white" stroke="white" stroke-width="0.2" stroke-linecap="round" stroke-linejoin="round"/>
<path d="M30.7933 7.01943L31.3795 6.88179C31.9312 6.74416 32.345 6.74416 32.6899 6.84738C33.0002 6.98502 33.2071 7.22588 33.3105 7.63878C33.414 7.98287 33.345 8.25814 33.1381 8.499C32.9312 8.73986 32.6209 8.9119 32.1726 9.04954L30.2416 9.53126L29.3105 5.91835L32.345 5.12695L32.5519 5.84953L30.6209 6.36566L30.7933 7.01943ZM31.1726 8.46459L31.7588 8.32695C32.1036 8.22373 32.2416 8.05169 32.1726 7.81083C32.1036 7.60437 31.8968 7.53556 31.5519 7.60437L30.9657 7.74201L31.1726 8.46459Z" fill="white" stroke="white" stroke-width="0.2" stroke-linecap="round" stroke-linejoin="round"/>
<path d="M33.1387 4.95438L34.38 4.78233L35.1042 6.2275L35.38 4.6447L36.5525 4.47266L35.7249 7.50061C35.6559 7.74147 35.5869 7.91352 35.5525 8.05115C35.4835 8.18879 35.4145 8.29201 35.2766 8.36083C35.1387 8.46405 34.9318 8.53287 34.6904 8.56728C34.5525 8.60169 34.3111 8.60169 34.0007 8.60169L33.8973 7.8447C34.1042 7.8447 34.2421 7.8447 34.3111 7.81029C34.5869 7.77588 34.7249 7.63825 34.7594 7.4318L33.1387 4.95438Z" fill="white" stroke="white" stroke-width="0.2" stroke-linecap="round" stroke-linejoin="round"/>
<path d="M41.104 8.87741L40.173 8.91182L40.1385 8.08602L37.7592 8.15483L37.7936 8.98064L36.8626 9.01505L36.8281 7.32903H37.2074C37.4143 6.70967 37.4833 6.0215 37.4833 5.29892L37.4488 4.47311L40.5867 4.4043L40.6557 7.26021H41.0695L41.104 8.87741ZM39.5178 7.2258L39.4488 5.26451L38.5178 5.29892V5.33333C38.5178 5.84946 38.4488 6.50322 38.3109 7.26021L39.5178 7.2258Z" fill="white" stroke="white" stroke-width="0.2" stroke-linecap="round" stroke-linejoin="round"/>
<path d="M41.759 4.4043L42.9314 4.47311L42.6555 8.18924L41.5176 8.12043L41.759 4.4043Z" fill="white" stroke="white" stroke-width="0.2" stroke-linecap="round" stroke-linejoin="round"/>
<path d="M43.9319 4.57617L46.0699 4.92026C46.4147 4.98908 46.6905 5.12671 46.863 5.33316C47.0354 5.53961 47.0699 5.78047 47.0354 6.02133C47.0009 6.22778 46.8974 6.39983 46.725 6.53746C46.6216 6.64069 46.4836 6.6751 46.2767 6.7095C46.5181 6.81273 46.725 6.95037 46.794 7.12241C46.8974 7.29445 46.9319 7.5009 46.8974 7.74176C46.863 7.94821 46.794 8.08585 46.6905 8.22348C46.5871 8.36112 46.4492 8.46434 46.2767 8.53316C46.1733 8.56757 46.0354 8.60198 45.8285 8.56757C45.5526 8.56757 45.3802 8.53316 45.3112 8.53316L43.3457 8.22348L43.9319 4.57617ZM44.6216 7.63854L45.2078 7.74176C45.4147 7.77617 45.5526 7.77617 45.6561 7.70735C45.7595 7.63854 45.794 7.56972 45.8285 7.43209C45.863 7.32886 45.8285 7.22563 45.7595 7.15682C45.6905 7.088 45.5526 7.01918 45.3457 6.98477L44.7595 6.88155L44.6216 7.63854ZM44.863 6.19338L45.3457 6.26219C45.5181 6.2966 45.6561 6.2966 45.725 6.22778C45.794 6.19338 45.863 6.09015 45.863 5.98692C45.8974 5.8837 45.863 5.78047 45.794 5.71166C45.725 5.64284 45.6216 5.57402 45.4492 5.57402L44.9319 5.5052L44.863 6.19338Z" fill="white" stroke="white" stroke-width="0.2" stroke-linecap="round" stroke-linejoin="round"/>
<path d="M48.2073 5.33301L51.1728 6.19322L50.9659 6.95021L49.1039 6.39968L48.9315 6.98462L50.6556 7.46634L50.4487 8.18892L48.7246 7.7072L48.5177 8.42978L50.4487 8.98032L50.2073 9.80613L47.1729 8.94591L48.2073 5.33301Z" fill="white" stroke="white" stroke-width="0.2" stroke-linecap="round" stroke-linejoin="round"/>
<path d="M53.8971 11.3209L52.8282 10.8736L53.9316 8.29299L53.104 7.9489L52.6557 9.01557C52.4833 9.46288 52.3109 9.77255 52.173 9.9446C52.0351 10.1166 51.8626 10.2199 51.6557 10.2543C51.4488 10.2887 51.1385 10.2199 50.7592 10.0478C50.6557 10.0134 50.5178 9.9446 50.3799 9.84137L50.6902 9.1532L50.8626 9.22202C51.0006 9.29083 51.1385 9.29083 51.2075 9.25643C51.3109 9.22202 51.3799 9.11879 51.4488 8.94675L52.4144 6.67578L55.3799 7.9489L53.8971 11.3209Z" fill="white" stroke="white" stroke-width="0.2" stroke-linecap="round" stroke-linejoin="round"/>
<path d="M56.6207 10.2194L57.1379 10.5291C57.6207 10.8043 57.931 11.114 58.0689 11.4237C58.2069 11.7334 58.1724 12.0775 57.9655 12.4215C57.7931 12.7312 57.5517 12.8689 57.2413 12.9033C56.931 12.9377 56.5862 12.8344 56.1724 12.5936L54.4482 11.5957L56.3448 8.36133L57.3448 8.94627L56.6207 10.2194ZM55.862 11.4925L56.3793 11.8022C56.6896 11.9742 56.931 11.9742 57.0344 11.7334C57.1379 11.5269 57.0689 11.3549 56.7241 11.1484L56.2069 10.8387L55.862 11.4925Z" fill="white" stroke="white" stroke-width="0.2" stroke-linecap="round" stroke-linejoin="round"/>
<path d="M60.0005 10.5977L60.9315 11.2858L60.1384 12.3181L61.1384 13.0751L61.9315 12.0428L62.8625 12.7654L60.5867 15.7245L59.6556 15.002L60.5867 13.7977L59.5867 13.0407L58.6556 14.245L57.7246 13.5568L60.0005 10.5977Z" fill="white" stroke="white" stroke-width="0.2" stroke-linecap="round" stroke-linejoin="round"/>
<path d="M66.2066 16.0343L63.5514 18.6838L62.7928 17.9268L64.2411 16.4816L61.7928 16.9289L61.0342 16.1719L63.6893 13.5225L64.448 14.2795L62.9997 15.7246L65.448 15.2773L66.2066 16.0343Z" fill="white" stroke="white" stroke-width="0.2" stroke-linecap="round" stroke-linejoin="round"/>
<path d="M69.1038 19.716L66.1382 21.987L65.4831 21.1268L67.1038 19.8881L64.621 20.0257L63.9658 19.1655L66.9313 16.8945L67.5865 17.7547L65.9313 18.9935L68.4141 18.8558L69.1038 19.716ZM69.3106 18.4773C69.1038 18.5806 68.9313 18.615 68.7244 18.5461C68.5175 18.4773 68.3451 18.3741 68.2072 18.1677C68.0693 17.9956 68.0003 17.7892 68.0003 17.5483C68.0003 17.3418 68.0693 17.1354 68.2072 16.9978L68.4831 17.3418C68.3451 17.5139 68.3796 17.7203 68.5175 17.8924C68.6555 18.0988 68.8624 18.1676 69.0693 18.0988L69.3106 18.4773Z" fill="white" stroke="white" stroke-width="0.2" stroke-linecap="round" stroke-linejoin="round"/>
<path d="M68.9319 22.8821C69.4836 22.6068 69.9664 22.538 70.4491 22.71C70.8974 22.8476 71.2767 23.1917 71.5526 23.7423C71.8284 24.2928 71.8974 24.8089 71.7595 25.2562C71.6215 25.7036 71.2767 26.082 70.725 26.3229C70.3457 26.5294 69.9664 26.6326 69.656 26.5982C69.3457 26.5982 69.0353 26.495 68.7939 26.3229C68.5181 26.1509 68.3112 25.8756 68.1043 25.4971C67.8974 25.1186 67.8284 24.7745 67.7939 24.4648C67.7939 24.1552 67.8629 23.8799 68.0698 23.5702C68.2422 23.3294 68.5526 23.0885 68.9319 22.8821ZM69.4491 23.9143C69.1043 24.0864 68.8974 24.2584 68.8284 24.4648C68.7595 24.6713 68.7595 24.8777 68.8629 25.0842C68.9664 25.2907 69.1388 25.4283 69.3457 25.4971C69.5526 25.5315 69.8284 25.4627 70.2077 25.2907C70.5181 25.1186 70.725 24.9466 70.7939 24.7401C70.8629 24.5337 70.8629 24.3272 70.7595 24.1208C70.656 23.9143 70.4836 23.7767 70.2767 23.7423C70.0698 23.6734 69.7939 23.7423 69.4491 23.9143Z" fill="white" stroke="white" stroke-width="0.2" stroke-linecap="round" stroke-linejoin="round"/>
<path d="M70.3449 30.8643L69.9656 29.7632L72.6208 28.8342L72.3104 27.974L71.2414 28.3525C70.7932 28.5245 70.4483 28.5934 70.2414 28.6278C70.0001 28.6622 69.8277 28.5934 69.6552 28.4557C69.4828 28.3181 69.3449 28.0428 69.207 27.6643C69.1725 27.5611 69.138 27.3891 69.1035 27.2514L69.8277 27.0106L69.8966 27.1826C69.9656 27.3202 70.0001 27.4235 70.1035 27.4579C70.1725 27.4923 70.3104 27.4923 70.4828 27.4235L72.8276 26.5977L73.8966 29.6256L70.3449 30.8643Z" fill="white" stroke="white" stroke-width="0.2" stroke-linecap="round" stroke-linejoin="round"/>
<path d="M74.1031 30.5889L74.379 31.7243L70.7583 32.619L70.4824 31.4835L74.1031 30.5889Z" fill="white" stroke="white" stroke-width="0.2" stroke-linecap="round" stroke-linejoin="round"/>
<path d="M74.6555 32.7227L74.8624 34.2366L72.69 35.1313L75.0348 35.4065L75.2417 36.9205L71.552 37.4366L71.4141 36.5076L74.2417 36.1291L71.3106 35.785L71.2072 34.9248L73.9313 33.8237L71.1037 34.2022L70.9658 33.2732L74.6555 32.7227Z" fill="white" stroke="white" stroke-width="0.2" stroke-linecap="round" stroke-linejoin="round"/>
<path d="M71.5527 41.5658V40.4303L74.3803 40.3959V39.1228L71.5527 39.1572V38.0217L75.2769 37.9873L75.3113 41.5658H71.5527Z" fill="white" stroke="white" stroke-width="0.2" stroke-linecap="round" stroke-linejoin="round"/>
<path d="M4 41.6686V40.3955L5.55172 39.845L4 39.3633V38.1934L6.93103 39.3977C7.17241 39.5009 7.34483 39.5697 7.44828 39.6385C7.55172 39.7073 7.65517 39.8106 7.72414 39.9826C7.7931 40.1202 7.82759 40.3267 7.82759 40.602C7.82759 40.7396 7.82759 40.9805 7.7931 41.2901H7C7.03448 41.0837 7.03448 40.946 7.03448 40.8772C7.03448 40.602 6.93103 40.4643 6.72414 40.3955L4 41.6686Z" fill="#482E16"/>
<path d="M8.06897 34.4779L7.93104 35.7855L6.93104 36.1295C6.68966 36.1984 6.55172 36.2672 6.48276 36.336C6.41379 36.4048 6.37931 36.4736 6.37931 36.5769L7.86207 36.7145L7.75862 37.85L4 37.5059L4.10345 36.3704L5.55172 36.508C5.55172 36.4048 5.51724 36.336 5.48276 36.2672C5.41379 36.1984 5.24138 36.0951 4.93103 35.9575C4.68966 35.8543 4.55172 35.7511 4.44828 35.6478C4.34483 35.5446 4.31034 35.407 4.27586 35.2005C4.24138 34.9941 4.27586 34.6844 4.31034 34.2715L5.10345 34.3403V34.4091C5.06897 34.6156 5.10345 34.7532 5.17241 34.8564C5.24138 34.9597 5.34483 35.0629 5.51724 35.1317C5.68966 35.2005 5.7931 35.3037 5.86207 35.3726C5.93103 35.4414 6 35.5446 6.03448 35.6822C6.10345 35.5102 6.2069 35.3726 6.34483 35.2693C6.48276 35.1661 6.72414 35.0629 7 34.9252L8.06897 34.4779Z" fill="#482E16"/>
<path d="M4.48242 33.4109L4.89621 31.5184C4.99966 31.1055 5.13759 30.8302 5.37897 30.6582C5.62035 30.4861 5.9307 30.4517 6.27553 30.5205C6.65484 30.5894 6.89621 30.7614 7.06863 31.0367C7.24104 31.3119 7.27553 31.656 7.17208 32.1377L7.03415 32.7571L8.41346 33.0668L8.17208 34.2023L4.48242 33.4109ZM6.27553 32.6195L6.34449 32.3442C6.37897 32.1377 6.37897 31.9657 6.34449 31.8625C6.27553 31.7592 6.20656 31.6904 6.06863 31.656C5.96518 31.6216 5.86173 31.656 5.75828 31.6904C5.65484 31.7592 5.58587 31.8969 5.55139 32.1033L5.48242 32.413L6.27553 32.6195Z" fill="#482E16"/>
<path d="M8.99943 28.5593L8.58563 29.798L9.10288 30.1765L8.72357 31.312L5.62012 28.7658L6.03391 27.5615L10.0339 27.4238L9.6546 28.5937L8.99943 28.5593ZM8.17184 28.5249L6.75805 28.4905L7.89598 29.3163L8.17184 28.5249Z" fill="#482E16"/>
<path d="M5.86133 25.5655L6.13719 24.9461L6.7234 25.2214L6.44754 25.8407L5.86133 25.5655ZM6.3096 24.5676L6.58547 23.9482L7.17167 24.2235L6.89581 24.8429L6.3096 24.5676ZM6.79236 25.6687L7.27512 24.602L10.7234 26.116L10.2062 27.1827L6.79236 25.6687Z" fill="#482E16"/>
<path d="M7.68945 23.6388L8.27566 22.6409L9.41359 23.2947L10.0343 22.1936L8.89635 21.5398L9.48256 20.542L12.7584 22.4001L12.1722 23.3979L10.8619 22.6409L10.2067 23.742L11.517 24.499L10.9308 25.4968L7.68945 23.6388Z" fill="#482E16"/>
<path d="M13.3103 18.9592L14.1723 18.3398C14.3447 18.5807 14.4827 18.7871 14.5516 19.028C14.6206 19.2688 14.6206 19.4753 14.5861 19.7162C14.5172 19.957 14.4137 20.1979 14.2068 20.4732C13.9654 20.7828 13.724 21.0237 13.4827 21.1613C13.2413 21.299 12.9309 21.3678 12.5861 21.3334C12.2413 21.299 11.862 21.1613 11.4827 20.8861C10.9999 20.5076 10.6896 20.0947 10.6206 19.6473C10.5516 19.2 10.6896 18.7183 11.0689 18.2366C11.3447 17.8581 11.6551 17.6172 11.9654 17.514C12.2758 17.4108 12.6206 17.4108 13.0344 17.5484L12.6206 18.5119C12.5172 18.4775 12.4137 18.443 12.3447 18.443C12.2413 18.443 12.1378 18.4775 12.0344 18.5119C11.9309 18.5463 11.862 18.6151 11.793 18.7183C11.6206 18.9248 11.5861 19.1656 11.6896 19.4065C11.7585 19.5785 11.9309 19.785 12.1723 19.9914C12.5172 20.2323 12.7585 20.3699 12.9654 20.3355C13.1723 20.3355 13.3447 20.2323 13.4827 20.0602C13.6206 19.8882 13.6551 19.7162 13.6206 19.5441C13.5861 19.3033 13.4827 19.1312 13.3103 18.9592Z" fill="#482E16"/>
<path d="M14.5515 16.3095L14.9653 15.8622C15.3446 15.4493 15.7239 15.2084 16.0688 15.1396C16.4136 15.0708 16.7239 15.2084 17.0343 15.4837C17.2757 15.7246 17.3791 15.9998 17.3446 16.3095C17.3101 16.6192 17.1032 16.9289 16.7929 17.2729L15.4136 18.7181L12.6895 16.1719L13.4826 15.3461L14.5515 16.3095ZM15.655 17.3762L16.0688 16.9633C16.3101 16.688 16.3446 16.4815 16.1722 16.3095C15.9998 16.1375 15.7929 16.2063 15.5515 16.4815L15.1032 16.86L15.655 17.3762Z" fill="#482E16"/>
<path d="M20.7246 13.8325L19.7246 14.6583L18.7591 14.211C18.5177 14.1077 18.3798 14.0389 18.2763 14.0389C18.2074 14.0389 18.1039 14.0733 18.035 14.1422L19.0005 15.2776L18.1039 16.0002L15.7246 13.1099L16.6212 12.3873L17.5522 13.4884C17.6212 13.4196 17.6556 13.3508 17.6556 13.2475C17.6556 13.1443 17.5867 12.9723 17.4832 12.6282C17.4143 12.3873 17.3453 12.2153 17.3798 12.0776C17.3798 11.94 17.4487 11.8024 17.5867 11.6303C17.7246 11.4583 17.9315 11.2518 18.2763 10.9766L18.7936 11.5959L18.7591 11.6303C18.6212 11.768 18.5177 11.8712 18.4832 12.0088C18.4487 12.112 18.4832 12.2841 18.5177 12.4561C18.5867 12.6282 18.6212 12.7658 18.6212 12.869C18.6212 12.9723 18.5867 13.0755 18.5177 13.2131C18.6901 13.1443 18.8625 13.1443 19.035 13.1443C19.2074 13.1787 19.4487 13.2475 19.7246 13.3852L20.7246 13.8325Z" fill="#482E16"/>
<path d="M21.9661 8.60254L24.0006 11.7681L23.0696 12.3531L21.9661 10.6326L21.8972 13.0757L20.9661 13.6606L18.9316 10.495L19.8627 9.91007L20.9661 11.6649L21.0351 9.15308L21.9661 8.60254Z" fill="#482E16"/>
<path d="M26.2075 6.53738L27.7937 9.94383L26.7937 10.3911L25.9316 8.53308L25.5178 10.9761L24.5178 11.4234L22.9316 8.01695L23.9316 7.56964L24.7937 9.46211L25.2075 6.9847L26.2075 6.53738ZM25.0696 6.05566C25.1385 6.26212 25.1041 6.46857 25.0006 6.67502C24.8972 6.88147 24.7592 7.0191 24.5178 7.12233C24.3109 7.22556 24.1041 7.25996 23.8627 7.19115C23.6558 7.15674 23.4834 7.0191 23.3454 6.84706L23.7592 6.67502C23.8972 6.84706 24.1041 6.88147 24.3109 6.77824C24.5523 6.67502 24.6558 6.50298 24.6213 6.29652L25.0696 6.05566Z" fill="#482E16"/>
<path d="M30.4828 6.67568L31.069 6.50363C31.6207 6.366 32.069 6.366 32.3793 6.46922C32.6897 6.60686 32.8966 6.84772 33 7.26062C33.1034 7.60471 33.0345 7.87998 32.8276 8.12084C32.6207 8.3617 32.3103 8.53374 31.8621 8.67138L29.931 9.1875L29 5.5746L32.069 4.7832L32.2759 5.50578L30.3448 6.02191L30.4828 6.67568ZM30.8621 8.12084L31.4483 7.9832C31.7931 7.87998 31.931 7.70793 31.8621 7.46707C31.7931 7.26062 31.5862 7.19181 31.2414 7.26062L30.6552 7.39826L30.8621 8.12084Z" fill="#482E16"/>
<path d="M32.8271 4.57668L34.0685 4.40463L34.7927 5.84979L35.0685 4.23259L36.2409 4.06055L35.4134 7.0885C35.3444 7.32936 35.2754 7.50141 35.2409 7.63904C35.172 7.77668 35.0685 7.8799 34.9651 7.98313C34.8272 8.08635 34.6203 8.15517 34.3789 8.18958C34.2409 8.22399 33.9996 8.22399 33.6892 8.22399L33.5858 7.467C33.7927 7.467 33.9306 7.467 33.9996 7.43259C34.2754 7.39818 34.4134 7.26055 34.4478 7.0541L32.8271 4.57668Z" fill="#482E16"/>
<path d="M40.8279 8.49897L39.8969 8.53338L39.8624 7.70757L37.4486 7.77639L37.4831 8.60219L36.5521 8.6366L36.5176 6.95058H36.8969C37.1038 6.33123 37.1728 5.64305 37.1728 4.88606L37.1383 4.06026L40.2762 3.95703L40.3452 6.84735H40.759L40.8279 8.49897ZM39.2417 6.88176L39.1727 4.92047L38.2417 4.95488V4.98929C38.2417 5.50542 38.1728 6.15918 38.0348 6.91617L39.2417 6.88176Z" fill="#482E16"/>
<path d="M41.5171 4.02539L42.6895 4.09421L42.4136 7.84475L41.2412 7.77593L41.5171 4.02539Z" fill="#482E16"/>
<path d="M43.6904 4.19824L45.8283 4.54233C46.1732 4.61115 46.449 4.74878 46.6214 4.95523C46.7938 5.16168 46.8283 5.40254 46.7938 5.6434C46.7594 5.84986 46.6559 6.0219 46.4835 6.15953C46.3801 6.26276 46.2421 6.29717 46.0352 6.33158C46.2766 6.4348 46.4835 6.57244 46.587 6.74448C46.6904 6.91652 46.7249 7.12297 46.6904 7.36383C46.6559 7.57029 46.587 7.70792 46.4835 7.84555C46.3801 7.98319 46.2421 8.08641 46.0697 8.15523C45.9663 8.18964 45.8283 8.22405 45.6214 8.18964C45.3456 8.18964 45.1732 8.15523 45.1042 8.15523L43.1387 7.84555L43.6904 4.19824ZM44.3456 7.29502L44.9318 7.39824C45.1387 7.43265 45.2766 7.43265 45.3801 7.36383C45.4835 7.29502 45.518 7.2262 45.5525 7.08857C45.587 6.98534 45.5525 6.88211 45.4835 6.8133C45.4145 6.74448 45.2766 6.67566 45.0697 6.64125L44.4835 6.53803L44.3456 7.29502ZM44.587 5.81545L45.0697 5.88426C45.2421 5.91867 45.3801 5.91867 45.449 5.84986C45.518 5.81545 45.587 5.71222 45.587 5.60899C45.587 5.50577 45.587 5.40254 45.518 5.33373C45.449 5.26491 45.3456 5.19609 45.1732 5.19609L44.6559 5.12727L44.587 5.81545Z" fill="#482E16"/>
<path d="M47.9658 4.95508L50.9658 5.81529L50.7589 6.57228L48.8969 6.02175L48.7244 6.60669L50.4486 7.08841L50.2417 7.81099L48.5175 7.32927L48.3107 8.05185L50.2417 8.60239L50.0003 9.4282L46.9658 8.56798L47.9658 4.95508Z" fill="#482E16"/>
<path d="M53.7243 10.9764L52.6553 10.5291L53.7588 7.91408L52.9312 7.56999L52.4829 8.63666C52.3105 9.08397 52.1381 9.39365 52.0001 9.56569C51.8622 9.73773 51.6898 9.84096 51.4829 9.87537C51.276 9.90978 50.9656 9.84096 50.5863 9.66892C50.4829 9.63451 50.345 9.56569 50.207 9.46246L50.5174 8.77429L50.6898 8.84311C50.8277 8.91193 50.9657 8.91193 51.0346 8.87752C51.1381 8.84311 51.207 8.73988 51.276 8.56784L52.2415 6.29688L55.207 7.56999L53.7243 10.9764Z" fill="#482E16"/>
<path d="M56.4485 9.87541L57.0002 10.1851C57.483 10.4604 57.7933 10.77 57.9312 11.0797C58.0692 11.3894 58.0347 11.7335 57.8278 12.112C57.6554 12.4216 57.414 12.5593 57.1036 12.5937C56.7933 12.6281 56.4485 12.5249 56.0347 12.284L54.3105 11.2862L56.2071 8.05176L57.2071 8.6367L56.4485 9.87541ZM55.6554 11.1485L56.1726 11.4582C56.483 11.6303 56.7243 11.6303 56.8278 11.3894C56.9312 11.1829 56.8623 11.0109 56.5174 10.8044L56.0002 10.4948L55.6554 11.1485Z" fill="#482E16"/>
<path d="M59.8276 10.2539L60.7587 10.9765L59.9656 12.0087L60.9656 12.7657L61.7587 11.7335L62.6897 12.4561L60.4138 15.4152L59.4828 14.6926L60.4138 13.4883L59.4138 12.7313L58.4828 13.9356L57.5518 13.213L59.8276 10.2539Z" fill="#482E16"/>
<path d="M66.0689 15.6905L63.4137 18.34L62.6551 17.583L64.1034 16.1379L61.6551 16.5852L60.8965 15.8282L63.5517 13.1787L64.3103 13.9357L62.8275 15.4153L65.3103 14.9336L66.0689 15.6905Z" fill="#482E16"/>
<path d="M68.9993 19.3723L65.9993 21.6433L65.3441 20.783L66.9993 19.5443L64.5165 19.682L63.8613 18.8218L66.8613 16.5508L67.5165 17.411L65.8613 18.6841L68.3786 18.5465L68.9993 19.3723ZM69.2062 18.168C68.9993 18.2712 68.8268 18.3056 68.5855 18.2368C68.3786 18.168 68.2062 18.0648 68.0682 17.8583C67.9303 17.6863 67.8613 17.4798 67.8613 17.239C67.8613 17.0325 67.9303 16.8261 68.1027 16.6884L68.3786 17.0325C68.2406 17.2045 68.2751 17.411 68.4131 17.583C68.5855 17.7895 68.7579 17.8583 68.9648 17.7895L69.2062 18.168Z" fill="#482E16"/>
<path d="M68.8274 22.6063C69.3791 22.3311 69.8619 22.2622 70.3446 22.3999C70.7929 22.5375 71.1722 22.8816 71.4481 23.4321C71.7239 23.9827 71.7929 24.4988 71.655 24.9461C71.517 25.3934 71.1722 25.7719 70.6205 26.0472C70.2412 26.2536 69.8619 26.3569 69.5515 26.3225C69.2412 26.3225 68.9308 26.2192 68.6895 26.0472C68.4136 25.8751 68.2067 25.5999 67.9998 25.2214C67.7929 24.8429 67.7239 24.4988 67.6895 24.1891C67.6895 23.8794 67.7584 23.5698 67.9653 23.2945C68.1377 23.0536 68.4136 22.8128 68.8274 22.6063ZM69.3446 23.6386C68.9998 23.8106 68.7929 23.9827 68.7239 24.1891C68.655 24.3956 68.655 24.602 68.7584 24.8085C68.8619 25.0149 69.0343 25.1526 69.2412 25.2214C69.4481 25.2558 69.7239 25.187 70.1032 25.0149C70.4136 24.8429 70.6205 24.6708 70.6895 24.4644C70.7584 24.2579 70.7584 24.0515 70.655 23.845C70.5515 23.6386 70.3791 23.5009 70.1722 23.4665C69.9653 23.3977 69.6895 23.4665 69.3446 23.6386Z" fill="#482E16"/>
<path d="M70.2072 30.5889L69.8279 29.4879L72.5175 28.5588L72.2072 27.6986L71.1038 28.0771C70.6555 28.2491 70.3107 28.318 70.1038 28.3524C69.8624 28.3868 69.69 28.318 69.5175 28.1803C69.3451 28.0427 69.2072 27.7674 69.0693 27.3889C69.0348 27.2857 69.0003 27.1137 68.9658 26.976L69.69 26.7352L69.7589 26.9072C69.8279 27.0448 69.8969 27.1481 69.9658 27.1825C70.0693 27.2169 70.1727 27.2169 70.3451 27.1481L72.69 26.3223L73.7589 29.3502L70.2072 30.5889Z" fill="#482E16"/>
<path d="M73.9999 30.3486L74.2758 31.4841L70.6206 32.3787L70.3447 31.2433L73.9999 30.3486Z" fill="#482E16"/>
<path d="M74.5513 32.4814L74.7582 33.9954L72.5858 34.89L74.9306 35.1653L75.1375 36.6793L71.4134 37.1954L71.2754 36.2664L74.103 35.8535L71.172 35.5094L71.0685 34.6492L73.7927 33.5137L70.9651 33.9266L70.8271 32.9976L74.5513 32.4814Z" fill="#482E16"/>
<path d="M71.4482 41.3592V40.1893L74.2758 40.1549V38.8818L71.4482 38.9162V37.7463L75.2069 37.7119L75.2414 41.2904L71.4482 41.3592Z" fill="#482E16"/>
<path d="M7.10301 54.1255L6.68922 53.0589L9.34439 52.061L9.03405 51.2008L7.96508 51.6137C7.5168 51.7857 7.17198 51.889 6.96508 51.9234C6.7237 51.9578 6.55129 51.889 6.37887 51.7513C6.20646 51.6137 6.06853 51.3384 5.9306 50.9599C5.89611 50.8567 5.86163 50.6847 5.82715 50.547L6.55129 50.2718L6.62025 50.4438C6.68922 50.5814 6.75818 50.6847 6.82715 50.7191C6.9306 50.7535 7.03404 50.7535 7.20646 50.6847L9.5168 49.79L10.6547 52.818L7.10301 54.1255Z" fill="white"/>
<path d="M9.30971 57.0506L8.68902 55.8807L8.06833 56.0183L7.5166 54.9861L11.4821 54.4355L12.0683 55.5366L9.44764 58.5646L8.86143 57.4979L9.30971 57.0506ZM9.89591 56.4657L10.8959 55.4678L9.5166 55.7431L9.89591 56.4657Z" fill="white"/>
<path d="M12.7927 56.8789L13.5169 57.9112L12.5514 59.2187L14.1031 58.737L14.7927 59.7004L11.7238 60.3886C11.4824 60.4574 11.2755 60.4574 11.1376 60.4918C10.9996 60.4918 10.8617 60.4574 10.7238 60.3886C10.5858 60.3198 10.4134 60.1821 10.2755 59.9413C10.2065 59.838 10.0686 59.6316 9.93066 59.3219L10.5514 58.8746C10.6548 59.0466 10.7238 59.1843 10.7583 59.2531C10.9307 59.4595 11.1031 59.5628 11.2755 59.494L12.7927 56.8789Z" fill="white"/>
<path d="M15.1375 60.0781L16.4479 61.4889C16.7237 61.7986 16.8617 62.1082 16.8617 62.3835C16.8617 62.6588 16.7237 62.9341 16.4479 63.1749C16.172 63.4158 15.8617 63.5534 15.5513 63.519C15.241 63.4846 14.9306 63.3125 14.6203 62.9685L14.2065 62.4867L13.172 63.4158L12.3789 62.5556L15.1375 60.0781ZM14.7237 62.005L14.9306 62.2115C15.0686 62.3835 15.2065 62.4523 15.3444 62.4867C15.4479 62.4867 15.5513 62.4523 15.6548 62.3835C15.7582 62.3147 15.7927 62.2115 15.7927 62.1082C15.7927 62.005 15.7237 61.8674 15.5858 61.6953L15.3789 61.4545L14.7237 62.005Z" fill="white"/>
<path d="M17.7581 62.9004L20.103 64.9305L19.5857 65.5499L18.103 64.2767L17.7237 64.724L19.103 65.8939L18.5857 66.4789L17.2064 65.309L16.7237 65.8595L18.2409 67.1671L17.6892 67.8208L15.2754 65.7563L17.7581 62.9004Z" fill="white"/>
<path d="M20.8965 69.2649L19.793 68.5423L19.3102 68.9552L18.3447 68.3015L21.6206 65.9961L22.6551 66.7187L21.724 70.5724L20.724 69.8843L20.8965 69.2649ZM21.1378 68.4735L21.5516 67.1316L20.4482 68.0262L21.1378 68.4735Z" fill="white"/>
<path d="M23.9996 67.5449L27.172 69.1277L26.7582 69.9535L25.6893 69.4374L24.4134 71.9492L23.3789 71.4331L24.6548 68.9213L23.5858 68.4051L23.9996 67.5449Z" fill="white"/>
<path d="M58.6547 69.9536L57.6547 70.5042L56.2754 68.0267L55.1719 68.6461L56.5512 71.1235L55.5512 71.6741L53.7236 68.4052L56.8616 66.6504L58.6547 69.9536Z" fill="white"/>
<path d="M57.5166 66.2028L59.0683 65.0329C59.4131 64.7921 59.7235 64.6888 59.9994 64.7232C60.2752 64.7577 60.5511 64.9297 60.758 65.205C60.9994 65.5146 61.0683 65.8243 61.0338 66.134C60.9649 66.4437 60.758 66.719 60.3787 67.0286L59.8614 67.4071L60.689 68.5082L59.758 69.1964L57.5166 66.2028ZM59.4131 66.7878L59.6545 66.6157C59.8269 66.4781 59.9304 66.3405 59.9649 66.2372C59.9994 66.134 59.9649 66.0308 59.8959 65.9276C59.8269 65.8243 59.7235 65.7899 59.62 65.7555C59.5166 65.7211 59.3787 65.7899 59.2063 65.9276L58.9304 66.134L59.4131 66.7878Z" fill="white"/>
<path d="M60.5859 63.8631L62.8273 61.6953L63.3791 62.2803L61.9653 63.6222L62.379 64.0351L63.6894 62.7964L64.2066 63.3469L62.8963 64.5856L63.4135 65.1018L64.8618 63.7254L65.448 64.3448L63.1722 66.5469L60.5859 63.8631Z" fill="white"/>
<path d="M63.3447 61.1792L64.2758 59.9749L66.4482 60.9383L64.9999 59.0803L65.9309 57.876L68.8964 60.1813L68.3102 60.9383L66.0689 59.1835L67.862 61.5233L67.3447 62.2115L64.6551 61.0072L66.8964 62.762L66.3102 63.519L63.3447 61.1792Z" fill="white"/>
<path d="M66.3789 57.1189L66.9996 56.1211L70.2065 58.0824L69.5858 59.0802L66.3789 57.1189Z" fill="white"/>
<path d="M66.5859 55.0542L66.8963 54.4693L67.448 54.779L67.1377 55.3639L66.5859 55.0542ZM67.1032 54.0908L67.4135 53.5059L67.9652 53.8155L67.6549 54.4005L67.1032 54.0908ZM67.517 55.2263L68.0687 54.194L71.379 55.9489L70.8273 56.9811L67.517 55.2263Z" fill="white"/>
<path d="M7.10301 53.7466L6.68922 52.68L9.34439 51.6821L9.03405 50.8219L7.96508 51.2348C7.5168 51.4068 7.17198 51.5101 6.96508 51.5445C6.7237 51.5789 6.55129 51.5101 6.37887 51.3724C6.20646 51.2348 6.06853 50.9595 5.9306 50.581C5.89611 50.4778 5.86163 50.3058 5.82715 50.1681L6.55129 49.8929L6.62025 50.0649C6.68922 50.2025 6.75818 50.3058 6.82715 50.3402C6.9306 50.3746 7.03404 50.3746 7.20646 50.3058L9.5168 49.4111L10.6547 52.4391L7.10301 53.7466Z" fill="#482E16"/>
<path d="M9.30971 56.7059L8.68902 55.536L8.06833 55.6736L7.5166 54.6414L11.4821 54.0908L12.0683 55.1919L9.44764 58.2198L8.86143 57.1532L9.30971 56.7059ZM9.89591 56.0865L10.8959 55.0887L9.5166 55.3639L9.89591 56.0865Z" fill="#482E16"/>
<path d="M12.7927 56.5L13.5169 57.5323L12.5514 58.8398L14.1031 58.3581L14.7927 59.3215L11.7238 60.0097C11.4824 60.0785 11.2755 60.0785 11.1376 60.1129C10.9996 60.1129 10.8617 60.0785 10.7238 60.0097C10.5858 59.9409 10.4134 59.8032 10.2755 59.5624C10.2065 59.4591 10.0686 59.2527 9.93066 58.943L10.5514 58.4957C10.6548 58.6677 10.7238 58.8054 10.7583 58.8742C10.8962 59.0806 11.1031 59.1839 11.2755 59.1151L12.7927 56.5Z" fill="#482E16"/>
<path d="M15.1375 59.6992L16.4479 61.11C16.7237 61.4196 16.8617 61.7293 16.8617 62.0046C16.8617 62.2799 16.7237 62.5551 16.4479 62.796C16.172 63.0368 15.8617 63.1745 15.5513 63.1401C15.241 63.1057 14.9306 62.9336 14.6203 62.5895L14.2065 62.1078L13.172 63.0368L12.3789 62.1766L15.1375 59.6992ZM14.7237 61.6605L14.9306 61.867C15.0686 62.039 15.2065 62.1078 15.3444 62.1422C15.4479 62.1422 15.5513 62.1078 15.6548 62.039C15.7582 61.9702 15.7927 61.867 15.7927 61.7637C15.7927 61.6605 15.7237 61.5229 15.5858 61.3508L15.3789 61.11L14.7237 61.6605Z" fill="#482E16"/>
<path d="M17.7581 62.5547L20.103 64.5848L19.5857 65.2042L18.103 63.931L17.7237 64.3783L19.103 65.5482L18.5857 66.1332L17.2064 64.9633L16.7237 65.5138L18.2409 66.8214L17.6892 67.4751L15.2754 65.4106L17.7581 62.5547Z" fill="#482E16"/>
<path d="M20.8965 68.9212L19.793 68.1986L19.3102 68.6115L18.3447 67.9577L21.6206 65.6523L22.6551 66.3749L21.724 70.1943L20.724 69.5061L20.8965 68.9212ZM21.1378 68.0954L21.5516 66.7534L20.4482 67.648L21.1378 68.0954Z" fill="#482E16"/>
<path d="M23.9996 67.166L27.172 68.7488L26.7582 69.5746L25.6893 69.0585L24.4134 71.5703L23.3789 71.0542L24.6548 68.5424L23.5858 68.0262L23.9996 67.166Z" fill="#482E16"/>
<path d="M58.6547 69.5747L57.6547 70.1252L56.2754 67.6478L55.1719 68.2672L56.5512 70.7446L55.5512 71.2951L53.7236 68.0263L56.8616 66.2715L58.6547 69.5747Z" fill="#482E16"/>
<path d="M57.5166 65.8591L59.0683 64.6892C59.4131 64.4483 59.7235 64.3451 59.9994 64.3795C60.2752 64.4139 60.5511 64.5859 60.758 64.8612C60.9994 65.1709 61.0683 65.4806 61.0338 65.7903C60.9649 66.0999 60.758 66.3752 60.3787 66.6849L59.8614 67.0634L60.689 68.1644L59.758 68.8526L57.5166 65.8591ZM59.4131 66.4096L59.6545 66.2376C59.8269 66.0999 59.9304 65.9623 59.9649 65.8591C59.9994 65.7558 59.9649 65.6526 59.8959 65.5494C59.8269 65.4462 59.7235 65.4118 59.62 65.3773C59.5166 65.3429 59.3787 65.4118 59.2063 65.5494L58.9304 65.7558L59.4131 66.4096Z" fill="#482E16"/>
<path d="M60.5859 63.4841L62.8273 61.3164L63.3791 61.9014L61.9653 63.2433L62.379 63.6562L63.6894 62.4175L64.2066 62.968L62.8963 64.2067L63.4135 64.7229L64.8618 63.3465L65.448 63.9659L63.1722 66.168L60.5859 63.4841Z" fill="#482E16"/>
<path d="M63.3447 60.8003L64.2758 59.596L66.4482 60.5594L64.9999 58.7014L65.9309 57.4971L68.8964 59.8024L68.3102 60.5594L66.0689 58.8046L67.862 61.1444L67.3447 61.8326L64.6551 60.6283L66.8964 62.3831L66.3102 63.1401L63.3447 60.8003Z" fill="#482E16"/>
<path d="M66.3789 56.74L66.9996 55.7422L70.2065 57.7035L69.5858 58.7013L66.3789 56.74Z" fill="#482E16"/>
<path d="M66.5859 54.6761L66.8963 54.0911L67.448 54.4008L67.1377 54.9858L66.5859 54.6761ZM67.1032 53.7471L67.4135 53.1621L67.9652 53.4718L67.6549 54.0567L67.1032 53.7471ZM67.517 54.8481L68.0687 53.8159L71.379 55.5707L70.8273 56.603L67.517 54.8481Z" fill="#482E16"/>
<path d="M36.242 74.7702H32.9316C32.9661 74.4605 33.0696 74.1508 33.2765 73.8411C33.4834 73.5659 33.8282 73.2218 34.3454 72.8089C34.6558 72.568 34.8627 72.396 34.9661 72.2583C35.0696 72.1207 35.1041 72.0175 35.1041 71.9143C35.1041 71.7766 35.0696 71.6734 34.9661 71.6046C34.8627 71.5358 34.7592 71.4669 34.6213 71.4669C34.4834 71.4669 34.3799 71.5014 34.2765 71.6046C34.173 71.7078 34.1385 71.8454 34.1041 72.0863L33.0006 71.9831C33.0351 71.6734 33.1385 71.4325 33.242 71.2605C33.3454 71.0885 33.5178 70.9508 33.7247 70.8476C33.9316 70.7444 34.242 70.71 34.5868 70.71C34.9661 70.71 35.2765 70.7444 35.4834 70.8476C35.6903 70.9508 35.8627 71.0885 36.0006 71.2605C36.1385 71.4325 36.173 71.639 36.173 71.8798C36.173 72.1207 36.1041 72.3616 35.9661 72.568C35.8282 72.7745 35.5523 73.0153 35.2075 73.2906C35.0006 73.4282 34.8282 73.5659 34.7592 73.6003C34.6903 73.6691 34.5868 73.7379 34.4834 73.8411H36.2075V74.7702H36.242Z" fill="white"/>
<path d="M37 72.7742C37 72.0173 37.1379 71.5011 37.4138 71.1914C37.6897 70.8818 38.1034 70.7441 38.6552 70.7441C38.931 70.7441 39.1379 70.7785 39.3103 70.8474C39.4828 70.9162 39.6207 70.985 39.7241 71.0882C39.8276 71.1915 39.931 71.2947 39.9655 71.4323C40.0345 71.5355 40.069 71.6732 40.1034 71.8452C40.1724 72.1549 40.2069 72.4646 40.2069 72.7742C40.2069 73.4968 40.069 74.013 39.8276 74.357C39.5862 74.7011 39.1724 74.8732 38.5517 74.8732C38.2069 74.8732 37.931 74.8044 37.7586 74.7011C37.5517 74.5979 37.3793 74.4259 37.2414 74.2194C37.1379 74.0818 37.069 73.8753 37.0345 73.6345C37.0345 73.3592 37 73.0495 37 72.7742ZM38.1034 72.7742C38.1034 73.2904 38.1379 73.6345 38.2414 73.8065C38.3448 73.9785 38.4483 74.0818 38.6207 74.0818C38.7241 74.0818 38.8276 74.0474 38.8966 73.9785C38.9655 73.9097 39.0345 73.7721 39.069 73.6C39.1034 73.428 39.1379 73.1527 39.1379 72.8087C39.1379 72.2925 39.1034 71.914 39 71.742C38.8965 71.5699 38.7931 71.4667 38.5862 71.4667C38.4138 71.4667 38.2759 71.5699 38.2069 71.742C38.1379 71.914 38.1034 72.2581 38.1034 72.7742Z" fill="white"/>
<path d="M44.2078 74.7702H40.8975C40.9319 74.4605 41.0354 74.1508 41.2423 73.8411C41.4492 73.5659 41.794 73.2218 42.3113 72.8089C42.6216 72.568 42.8285 72.396 42.9319 72.2583C43.0354 72.1207 43.0699 72.0175 43.0699 71.9143C43.0699 71.7766 43.0354 71.6734 42.9319 71.6046C42.8285 71.5358 42.725 71.4669 42.5871 71.4669C42.4492 71.4669 42.3457 71.5014 42.2423 71.6046C42.1388 71.7078 42.1044 71.8454 42.0699 72.0863L40.9664 71.9831C41.0009 71.6734 41.1044 71.4325 41.2078 71.2605C41.3113 71.0885 41.4837 70.9508 41.6906 70.8476C41.8975 70.7444 42.2078 70.71 42.5526 70.71C42.9319 70.71 43.2423 70.7444 43.4492 70.8476C43.6561 70.9508 43.8285 71.0885 43.9664 71.2605C44.1044 71.4325 44.1388 71.639 44.1388 71.8798C44.1388 72.1207 44.0699 72.3616 43.9319 72.568C43.794 72.7745 43.5181 73.0153 43.1733 73.2906C42.9664 73.4282 42.794 73.5659 42.725 73.6003C42.6561 73.6691 42.5526 73.7379 42.4492 73.8411H44.1733V74.7702H44.2078Z" fill="white"/>
<path d="M47.4484 70.7441V74.7699H46.345V72.1205C46.1725 72.2581 46.0001 72.3613 45.8277 72.4646C45.6553 72.5334 45.4484 72.6366 45.207 72.7054V71.8108C45.5863 71.6732 45.8622 71.5355 46.0691 71.3635C46.276 71.1914 46.4484 70.985 46.5519 70.7441H47.4484Z" fill="white"/>
<path d="M36.0691 74.4606H32.7588C32.7933 74.1509 32.8967 73.8412 33.1036 73.5316C33.3105 73.2563 33.6553 72.9122 34.1726 72.4993C34.4829 72.2585 34.6898 72.0864 34.7933 71.9488C34.8967 71.8111 34.9312 71.7079 34.9312 71.6047C34.9312 71.4671 34.8967 71.3638 34.7933 71.295C34.6898 71.2262 34.5864 71.1574 34.4484 71.1574C34.3105 71.1574 34.2071 71.1918 34.1036 71.295C34.0002 71.3982 33.9657 71.5359 33.9312 71.7767L32.8278 71.6735C32.8622 71.3638 32.9657 71.123 33.0691 70.9509C33.1726 70.7789 33.345 70.6412 33.5519 70.538C33.7588 70.4348 34.0691 70.4004 34.414 70.4004C34.7933 70.4004 35.1036 70.4348 35.3105 70.538C35.5174 70.6412 35.6898 70.7789 35.8278 70.9509C35.9657 71.123 36.0002 71.3294 36.0002 71.5703C36.0002 71.8111 35.9312 72.052 35.7933 72.2585C35.6553 72.4649 35.3795 72.7058 35.0346 72.981C34.8278 73.1187 34.6553 73.2563 34.5864 73.2907C34.5174 73.3595 34.414 73.4283 34.3105 73.5316H36.0346V74.4606H36.0691Z" fill="#482E16"/>
<path d="M36.793 72.4647C36.793 71.7077 36.9309 71.1916 37.2068 70.8819C37.4826 70.5722 37.8964 70.4346 38.4481 70.4346C38.724 70.4346 38.9309 70.469 39.1033 70.5378C39.2757 70.6066 39.4137 70.6754 39.5171 70.7787C39.6206 70.8819 39.724 70.9851 39.7585 71.1227C39.8275 71.226 39.8619 71.3636 39.8964 71.5356C39.9654 71.8453 39.9999 72.155 39.9999 72.4647C39.9999 73.1873 39.8619 73.7034 39.6206 74.0475C39.3792 74.3916 38.9654 74.5636 38.3447 74.5636C37.9999 74.5636 37.724 74.4948 37.5516 74.3916C37.3447 74.2883 37.1723 74.1163 37.0343 73.9098C36.9309 73.7722 36.8619 73.5658 36.8275 73.3249C36.8275 73.0496 36.793 72.7744 36.793 72.4647ZM37.8964 72.4647C37.8964 72.9808 37.9309 73.3249 38.0344 73.4969C38.1378 73.669 38.2412 73.7722 38.4137 73.7722C38.5171 73.7722 38.6206 73.7378 38.6895 73.669C38.7585 73.6002 38.8275 73.4625 38.8619 73.2905C38.8964 73.1184 38.9309 72.8432 38.9309 72.4991C38.9309 71.983 38.8964 71.6045 38.793 71.4324C38.6895 71.2604 38.5861 71.1572 38.3792 71.1572C38.2068 71.1572 38.0688 71.2604 37.9999 71.4324C37.9309 71.6389 37.8964 71.983 37.8964 72.4647Z" fill="#482E16"/>
<path d="M44.0008 74.4606H40.6904C40.7249 74.1509 40.8284 73.8412 41.0353 73.5316C41.2422 73.2563 41.587 72.9122 42.1042 72.4993C42.4146 72.2585 42.6215 72.0864 42.7249 71.9488C42.8284 71.8111 42.8628 71.7079 42.8628 71.6047C42.8628 71.4671 42.8284 71.3638 42.7249 71.295C42.6215 71.2262 42.518 71.1574 42.3801 71.1574C42.2422 71.1574 42.1387 71.1918 42.0353 71.295C41.9318 71.3982 41.8973 71.5359 41.8628 71.7767L40.7594 71.6735C40.7939 71.3638 40.8973 71.123 41.0008 70.9509C41.1042 70.7789 41.2766 70.6412 41.4835 70.538C41.6904 70.4348 42.0008 70.4004 42.3456 70.4004C42.7249 70.4004 43.0353 70.4348 43.2421 70.538C43.449 70.6412 43.6215 70.7789 43.7594 70.9509C43.8973 71.123 43.9318 71.3294 43.9318 71.5703C43.9318 71.8111 43.8628 72.052 43.7249 72.2585C43.587 72.4649 43.3111 72.7058 42.9663 72.981C42.7594 73.1187 42.587 73.2563 42.518 73.2907C42.449 73.3595 42.3456 73.4283 42.2422 73.5316H43.9663V74.4606H44.0008Z" fill="#482E16"/>
<path d="M47.2414 70.4346V74.4604H46.1379V71.8109C45.9655 71.9485 45.7931 72.0518 45.6207 72.155C45.4483 72.2238 45.2414 72.327 45 72.3959V71.5012C45.3793 71.3636 45.6552 71.226 45.8621 71.0539C46.069 70.8819 46.2414 70.6754 46.3448 70.4346H47.2414Z" fill="#482E16"/>
<path d="M50.8279 70.4346L50.5175 71.4668L49.4141 71.5012L50.3106 72.1206L50.0003 73.1873L50.8623 72.5335L51.7589 73.1529L51.4141 72.1206L52.2761 71.4324L51.1727 71.4668L50.8279 70.4346Z" fill="white"/>
<path d="M50.9314 70.0898L50.5865 71.1221L49.5176 71.1565L50.4141 71.7759L50.0693 72.8425L50.9659 72.1544L51.8624 72.8081L51.5176 71.7415L52.3796 71.0877L51.2762 71.1221L50.9314 70.0898Z" fill="#482E16"/>
<path d="M29.793 70.4346L30.1033 71.4668L31.2068 71.5012L30.3102 72.1206L30.6206 73.1873L29.7585 72.5335L28.862 73.1529L29.2068 72.1206L28.3447 71.4324L29.4482 71.4668L29.793 70.4346Z" fill="white"/>
<path d="M29.6895 70.0898L29.9998 71.1221L31.1033 71.1565L30.2067 71.7759L30.5171 72.8425L29.655 72.1544L28.7585 72.8081L29.1033 71.7415L28.2412 71.0877L29.3447 71.1221L29.6895 70.0898Z" fill="#482E16"/>
<defs>
<linearGradient id="paint0_linear_834_6392" x1="34.152" y1="0.378426" x2="45.0919" y2="78.3879" gradientUnits="userSpaceOnUse">
<stop stop-color="white"/>
<stop offset="0.382" stop-color="#977348"/>
<stop offset="0.5337" stop-color="#6C5735"/>
<stop offset="0.8315" stop-color="#513716"/>
<stop offset="0.9719" stop-color="#D6A477"/>
</linearGradient>
<linearGradient id="paint1_linear_834_6392" x1="7.60866" y1="18.6196" x2="71.5962" y2="60.2631" gradientUnits="userSpaceOnUse">
<stop stop-color="#D6A477"/>
<stop offset="0.191" stop-color="white"/>
<stop offset="0.5169" stop-color="#B68A58"/>
<stop offset="0.7247" stop-color="#FDBD69"/>
<stop offset="0.8933" stop-color="#A07F52"/>
<stop offset="0.9247" stop-color="#A18054"/>
<stop offset="0.941" stop-color="#A58459"/>
<stop offset="0.9537" stop-color="#AC8A62"/>
<stop offset="0.9646" stop-color="#B6946E"/>
<stop offset="0.9744" stop-color="#C4A27F"/>
<stop offset="0.9832" stop-color="#D6B495"/>
<stop offset="0.9888" stop-color="#E4C3A8"/>
</linearGradient>
<linearGradient id="paint2_linear_834_6392" x1="57.075" y1="46.4324" x2="63.2162" y2="58.5112" gradientUnits="userSpaceOnUse">
<stop offset="0.191" stop-color="white"/>
<stop offset="1" stop-color="#6C5735"/>
</linearGradient>
</defs>
</svg>
