<svg width="65" height="65" viewBox="0 0 65 65" fill="none" xmlns="http://www.w3.org/2000/svg">
<circle cx="32.5" cy="32.5" r="32.5" fill="#292935"/>
<path d="M32.9999 27C30.794 27 29 28.794 29 30.9999C29 33.2059 30.794 34.9999 32.9999 34.9999C35.2059 34.9999 36.9999 33.2059 36.9999 30.9999C36.9999 28.794 35.2059 27 32.9999 27ZM33.9999 31.0001C33.9999 30.4482 33.5509 30.0002 32.9999 30.0002V28.0001C34.654 28.0001 35.9999 29.3461 35.9999 31.0001H33.9999Z" fill="white"/>
<path d="M42 31C42 26.0371 37.962 22 33 22C28.038 22 24 26.0369 24 31C24 33.896 25.424 36.6289 27.7631 38.3101L26.656 42.0001H39.3438L38.2369 38.31C40.5758 36.6292 41.9998 33.8961 41.9998 31.0003L42 31ZM33 37C29.691 37 27 34.309 27 31C27 27.691 29.691 25 33 25C36.309 25 39 27.691 39 31C39 34.3089 36.309 37 33 37Z" fill="white"/>
</svg>
