<svg width="115" height="115" viewBox="0 0 115 115" fill="none" xmlns="http://www.w3.org/2000/svg">
<circle cx="57.5" cy="57.5" r="57" fill="white" stroke="white"/>
<path d="M50.0756 36C48.1919 38.8218 49.1919 40.8436 49.9955 42.4673C50.7465 43.9873 51.29 45.0855 50.0756 46.9091C49.7956 47.3273 49.9101 47.8909 50.3265 48.1691" stroke="#292935"/>
<path d="M57.2435 36C55.3599 38.8218 56.3599 40.8436 57.1635 42.4673C57.9144 43.9873 58.458 45.0855 57.2435 46.9091C56.9636 47.3273 57.0781 47.8909 57.4944 48.1691" stroke="#292935"/>
<path d="M64.5716 36C62.688 38.8218 63.688 40.8436 64.4916 42.4673C65.2426 43.9873 65.7861 45.0855 64.5716 46.9091C64.2917 47.3273 64.4062 47.8909 64.8226 48.1691" stroke="#292935"/>
<path d="M42.5454 50.6406H73.4546C75.6855 50.6406 77.5 52.4566 77.5 54.6861V71.0497C77.5 73.2791 75.6856 75.0951 73.4546 75.0951H46.2584H42.5454C40.3145 75.0951 38.5 73.2791 38.5 71.0497V54.6861C38.5 52.4566 40.3144 50.6406 42.5454 50.6406Z" stroke="#292935"/>
<path d="M46.3398 75.5674L46.3398 79.2314" stroke="#292935"/>
<path d="M69.6602 75.5674L69.6602 79.2314" stroke="#292935"/>
<path d="M44.3438 53.832V71.8192" stroke="#292935"/>
<path d="M49.8398 53.832V71.8192" stroke="#292935"/>
<path d="M55.3359 53.832V71.8192" stroke="#292935"/>
<path d="M60.6641 53.832V71.8192" stroke="#292935"/>
<path d="M66.1602 53.832V71.8192" stroke="#292935"/>
<path d="M71.6562 53.832V71.8192" stroke="#292935"/>
</svg>
