<svg width="65" height="65" viewBox="0 0 65 65" fill="none" xmlns="http://www.w3.org/2000/svg">
<circle cx="32.5" cy="32.5" r="32.5" fill="#292935"/>
<path fill-rule="evenodd" clip-rule="evenodd" d="M33 42.6129C33 42.6129 41 37.2639 41 31.0235C41 28.8955 40.1571 26.8547 38.6569 25.35C37.1566 23.8453 35.1217 23 33 23C30.8783 23 28.8434 23.8453 27.3431 25.35C25.8429 26.8547 25 28.8955 25 31.0235C25 37.2639 33 42.6129 33 42.6129ZM35.6663 31.0236C35.6663 32.5007 34.4724 33.6981 32.9997 33.6981C31.5269 33.6981 30.333 32.5007 30.333 31.0236C30.333 29.5465 31.5269 28.3491 32.9997 28.3491C34.4724 28.3491 35.6663 29.5465 35.6663 31.0236Z" fill="white"/>
</svg>
