<svg width="268" height="67" viewBox="0 0 268 67" fill="none" xmlns="http://www.w3.org/2000/svg">
<path d="M268 0H0V67H268V0Z" fill="#E42629"/>
<path d="M161.374 27.5086H174.707V19.0646L168.057 14.3555L161.374 19.0646V27.5086Z" fill="white"/>
<path d="M161.24 39.2969H165.553C167.199 39.2969 168.45 39.784 169.306 40.7583C170.161 41.7327 170.589 43.0317 170.589 44.6881C170.589 46.3444 170.161 47.6435 169.306 48.6178C168.45 49.5921 167.199 50.0792 165.553 50.0792H161.24V39.2969ZM163.084 48.3904H165.421C166.573 48.3904 167.429 48.0332 167.956 47.3512C168.483 46.6692 168.746 45.7598 168.746 44.6556C168.746 43.5189 168.483 42.642 167.956 41.96C167.429 41.278 166.573 40.9207 165.421 40.9207H163.084V48.3904Z" fill="white"/>
<path d="M179.478 45.7924V46.377H173.75C173.815 48.0009 174.54 48.8128 175.922 48.8128C176.811 48.8128 177.371 48.488 177.601 47.8385H179.346C179.181 48.5855 178.819 49.17 178.227 49.5922C177.634 50.0144 176.844 50.2418 175.889 50.2418C174.704 50.2418 173.75 49.8521 173.058 49.1051C172.367 48.3581 172.005 47.3838 172.005 46.1497C172.005 44.948 172.334 43.9737 173.025 43.2592C173.717 42.5447 174.638 42.1875 175.824 42.1875C176.943 42.1875 177.832 42.5123 178.457 43.1943C179.116 43.8763 179.445 44.7532 179.478 45.7924ZM175.824 43.5515C174.704 43.5515 174.013 44.0712 173.783 45.1104H177.667C177.601 44.6557 177.404 44.2985 177.107 44.0062C176.811 43.6814 176.383 43.5515 175.824 43.5515Z" fill="white"/>
<path d="M182.572 50.0474L180.169 42.3828H181.914L183.757 48.4235H184.449L186.226 42.3828H187.971L185.568 50.0474H182.572Z" fill="white"/>
<path d="M196.135 45.7924V46.377H190.407C190.473 48.0009 191.197 48.8128 192.58 48.8128C193.468 48.8128 194.028 48.488 194.258 47.8385H196.003C195.839 48.5855 195.476 49.17 194.884 49.5922C194.291 50.0144 193.501 50.2418 192.547 50.2418C191.362 50.2418 190.407 49.8521 189.716 49.1051C189.024 48.3581 188.662 47.3838 188.662 46.1497C188.662 44.948 188.991 43.9737 189.683 43.2592C190.374 42.5447 191.296 42.1875 192.481 42.1875C193.6 42.1875 194.489 42.5123 195.114 43.1943C195.773 43.8763 196.102 44.7532 196.135 45.7924ZM192.514 43.5515C191.394 43.5515 190.703 44.0712 190.473 45.1104H194.357C194.291 44.6557 194.094 44.2985 193.798 44.0062C193.468 43.6814 193.04 43.5515 192.514 43.5515Z" fill="white"/>
<path d="M197.847 39.1016H199.559V50.0463H197.847V39.1016Z" fill="white"/>
<path d="M202.356 43.3242C203.047 42.5772 204.002 42.1875 205.22 42.1875C206.405 42.1875 207.36 42.5772 208.084 43.3242C208.776 44.0712 209.138 45.0455 209.138 46.2146C209.138 47.4163 208.776 48.3906 208.084 49.1376C207.393 49.8845 206.438 50.2743 205.22 50.2743C204.035 50.2743 203.08 49.8845 202.356 49.1376C201.665 48.3906 201.303 47.4163 201.303 46.2146C201.303 45.013 201.632 44.0712 202.356 43.3242ZM203.574 48.0658C203.936 48.553 204.496 48.8128 205.22 48.8128C205.944 48.8128 206.471 48.553 206.866 48.0658C207.228 47.5787 207.426 46.9616 207.426 46.2146C207.426 45.5002 207.228 44.8831 206.866 44.3959C206.504 43.9088 205.944 43.649 205.22 43.649C204.496 43.649 203.969 43.9088 203.574 44.3959C203.212 44.8831 203.015 45.5002 203.015 46.2146C203.015 46.9291 203.212 47.5462 203.574 48.0658Z" fill="white"/>
<path d="M210.851 42.3824H212.529V43.1293H212.892C213.385 42.5123 214.175 42.1875 215.196 42.1875C216.216 42.1875 217.039 42.5772 217.632 43.3242C218.225 44.0712 218.554 45.0455 218.554 46.2146C218.554 47.3838 218.257 48.3581 217.632 49.1051C217.039 49.8521 216.216 50.2418 215.196 50.2418C214.175 50.2418 213.451 49.917 212.957 49.3H212.595V53.0348H210.883V42.3824H210.851ZM214.669 43.6165C213.945 43.6165 213.418 43.8763 213.056 44.3635C212.694 44.8506 212.529 45.4677 212.529 46.2146C212.529 46.9616 212.694 47.5787 213.056 48.0658C213.418 48.553 213.945 48.8128 214.669 48.8128C215.361 48.8128 215.887 48.5855 216.249 48.0983C216.612 47.6112 216.809 46.9941 216.809 46.2146C216.809 45.4352 216.612 44.8181 216.249 44.3635C215.887 43.8763 215.361 43.6165 214.669 43.6165Z" fill="white"/>
<path d="M228.759 42.1875C229.647 42.1875 230.306 42.4473 230.734 42.967C231.162 43.4866 231.392 44.2011 231.392 45.1429V50.0469H229.68V45.4352C229.68 44.266 229.252 43.7139 228.364 43.7139C227.837 43.7139 227.442 43.9088 227.146 44.266C226.849 44.6233 226.718 45.1104 226.718 45.695V50.0469H225.006V45.4677C225.006 44.2985 224.578 43.7139 223.689 43.7139C223.129 43.7139 222.734 43.9088 222.438 44.331C222.142 44.7532 222.01 45.2728 222.01 45.8899V50.0469H220.232V42.3824H221.911V43.0644H222.273C222.668 42.4798 223.327 42.1875 224.216 42.1875C225.137 42.1875 225.829 42.5123 226.224 43.1293H226.586C227.08 42.5123 227.804 42.1875 228.759 42.1875Z" fill="white"/>
<path d="M240.477 45.7924V46.377H234.716C234.782 48.0009 235.506 48.8128 236.889 48.8128C237.778 48.8128 238.338 48.488 238.568 47.8385H240.313C240.148 48.5855 239.786 49.17 239.194 49.5922C238.601 50.0144 237.811 50.2418 236.856 50.2418C235.671 50.2418 234.716 49.8521 234.025 49.1051C233.334 48.3581 232.972 47.3838 232.972 46.1497C232.972 44.948 233.301 43.9737 233.992 43.2592C234.684 42.5447 235.605 42.1875 236.79 42.1875C237.91 42.1875 238.798 42.5123 239.424 43.1943C240.115 43.8763 240.444 44.7532 240.477 45.7924ZM236.823 43.5515C235.704 43.5515 235.013 44.0712 234.782 45.1104H238.667C238.601 44.6557 238.403 44.2985 238.107 44.0062C237.811 43.6814 237.383 43.5515 236.823 43.5515Z" fill="white"/>
<path d="M249.366 50.0469H247.654V45.5976C247.654 44.331 247.095 43.7139 245.943 43.7139C245.35 43.7139 244.856 43.9413 244.494 44.3635C244.132 44.7857 243.934 45.3378 243.934 45.9548V50.0469H242.223V42.3824H243.902V43.1293H244.264C244.725 42.5123 245.482 42.1875 246.502 42.1875C247.457 42.1875 248.181 42.4473 248.675 42.9994C249.169 43.5515 249.399 44.2985 249.399 45.2728V50.0469H249.366Z" fill="white"/>
<path d="M253.547 42.3815H255.39V43.843H253.547V47.5778C253.547 48.2599 253.942 48.5846 254.732 48.5846H255.357V50.0461H254.699C253.777 50.0461 253.053 49.8837 252.559 49.5265C252.065 49.1692 251.835 48.6171 251.835 47.7727V43.843H250.584V42.3815H251.835V40.1406H253.547V42.3815Z" fill="white"/>
<path d="M32.1293 14.2578L47.7662 32.3475V14.2578H61.2962V50.0474H47.5687L30.4174 30.4638V50.0474H16.8545V14.2578H32.1293Z" fill="white"/>
<path d="M76.9991 22.4083H63.9629V14.2891H76.9991V22.4083ZM76.9991 50.0462H63.9629V24.1621H76.9991V50.0462Z" fill="white"/>
<path d="M98.2656 50.7604H95.632C80.028 50.7604 78.7441 42.3489 78.7441 37.3474V36.568C78.7441 31.6639 79.9951 23.4473 95.5991 23.4473H98.2985C113.705 23.4473 114.989 31.6315 114.989 35.2364V35.3663H101.722C101.656 34.457 101.064 31.0794 96.9158 31.0794H96.7512C92.768 31.0794 91.945 34.0672 91.945 36.6654V36.7953C91.945 39.6208 92.768 42.9659 96.7512 42.9659H96.9158C101.031 42.9659 101.689 39.361 101.722 38.4516H114.989V38.5815C114.989 41.9591 114.067 50.7604 98.2656 50.7604Z" fill="white"/>
<path d="M134.872 50.7616H132.929C117.72 50.7616 115.877 42.6749 115.877 37.2837V36.5042C115.877 31.178 117.688 23.416 132.896 23.416H134.839C150.607 23.416 152.089 31.6002 152.089 37.7059V38.7127H128.716C128.913 40.9861 130.197 43.1945 134.115 43.1945C138.592 43.1945 139.151 40.8886 139.25 40.369H152.089V40.4015C152.056 44.1363 150.344 50.7616 134.872 50.7616ZM139.151 33.5164C138.855 31.6002 137.571 30.2037 133.983 30.2037C130.23 30.2037 129.111 31.6327 128.782 33.5164H139.151Z" fill="white"/>
</svg>
