<svg width="193" height="60" viewBox="0 0 193 60" fill="none" xmlns="http://www.w3.org/2000/svg">
<path d="M71.5967 0.320312H77.1967V6.90634H89.1997V0.320312H94.7997V18.4105H89.1997V11.2899H77.1967V18.4105H71.5967V0.320312Z" fill="#292935"/>
<path d="M116.376 0.320312V4.42589H103.062V7.09879H116.059V11.2257H103.062V14.198H116.608V18.4105H97.5469V0.320312H116.376Z" fill="#292935"/>
<path d="M124.554 0.320312V13.92H136.98V18.4105H118.954V0.320312H124.554Z" fill="#292935"/>
<path d="M144.629 0.320312V13.92H157.055V18.4105H139.029V0.320312H144.629Z" fill="#292935"/>
<path d="M171.299 0C182.541 0 183.873 5.70931 183.873 8.93817V9.6652C183.873 12.8513 182.584 18.7103 171.299 18.7103H170.264C158.958 18.7103 157.669 12.8513 157.669 9.6652V8.93817C157.669 5.70931 158.937 0 170.264 0H171.299ZM177.998 9.13062C177.998 7.05645 176.815 4.38355 170.771 4.38355C164.621 4.38355 163.544 7.05645 163.544 9.13062V9.42999C163.544 11.5042 164.727 14.3481 170.771 14.3481C176.772 14.3481 177.998 11.5683 177.998 9.49414V9.13062Z" fill="#292935"/>
<path d="M71.5967 25.4893H77.1967V32.0753H89.1997V25.4893H94.7997V43.5794H89.1997V36.4588H77.1967V43.5794H71.5967V25.4893Z" fill="#292935"/>
<path d="M110.438 25.168C121.68 25.168 123.011 30.8773 123.011 34.1061V34.8332C123.011 38.0193 121.722 43.8783 110.438 43.8783H109.402C98.0967 43.8783 96.8076 38.0193 96.8076 34.8332V34.1061C96.8076 30.8773 98.0755 25.168 109.402 25.168H110.438ZM117.137 34.2772C117.137 32.203 115.953 29.5301 109.91 29.5301C103.76 29.5301 102.682 32.203 102.682 34.2772V34.5766C102.682 36.6507 103.866 39.4947 109.91 39.4947C115.911 39.4947 117.137 36.7149 117.137 34.6407V34.2772Z" fill="#292935"/>
<path d="M135.964 43.836C126.37 43.836 124.807 37.6563 124.807 34.2564V25.4893H130.428V33.9356C130.428 36.2664 131.463 39.1531 136.345 39.1531C141.142 39.1531 142.198 36.2664 142.198 33.9356V25.4893H147.798V34.2564C147.798 37.6563 145.981 43.836 136.81 43.836H135.964Z" fill="#292935"/>
<path d="M159.866 43.8783C150.504 43.8783 149.405 39.7941 149.405 37.4205V37.1426H155.238C155.301 38.2331 155.935 40.0079 160.542 40.0079H160.88C165.592 40.0079 166.121 39.067 166.121 38.0834C166.121 37.0356 165.571 36.3728 161.429 36.2658L158.344 36.2017C151.666 36.0093 149.617 33.7212 149.617 30.8987V30.6848C149.617 27.9906 151.202 25.168 159.337 25.168H160.986C169.439 25.168 171.362 28.1616 171.362 30.8773V31.1125H165.55C165.423 30.4282 165.064 28.9528 160.394 28.9528H160.014C155.681 28.9528 155.386 29.7226 155.386 30.5138C155.386 31.3049 155.872 31.9892 159.528 32.0747L162.528 32.1175C169.248 32.2458 171.974 33.8923 171.974 37.4847V37.8268C171.974 40.8205 170.495 43.8783 161.493 43.8783H159.866Z" fill="#292935"/>
<path d="M192.727 25.4893V29.5948H179.414V32.2677H192.41V36.3947H179.414V39.3669H192.959V43.5794H173.877V25.4893H192.727Z" fill="#292935"/>
<path d="M71.1533 59.8302L73.9639 56.9007L71.3646 54.0781H72.9495L75.4009 56.8579V54.0781H76.6899V56.8579L79.1412 54.0781H80.7261L78.1269 56.9007L80.9374 59.8302H79.3103L76.6899 57.0076V59.8302H75.4009V57.0076L72.7805 59.8302H71.1533Z" fill="#292935"/>
<path d="M87.6989 59.8302H86.4099V55.4253H86.3465L83.7684 59.8302H81.8242V54.0781H83.1133V58.4831H83.1767L85.7759 54.0781H87.72V59.8302H87.6989Z" fill="#292935"/>
<path d="M90.9334 55.2542H88.6934V54.0781H94.4835V55.2542H92.2435V59.8516L90.9545 59.8302V55.2542H90.9334Z" fill="#292935"/>
<path d="M95.4123 57.4353L95.9194 54.0781H100.526V59.8302H99.2372V55.2542H97.0606L96.7224 57.4353C96.5745 58.3548 96.3632 58.9963 96.1096 59.3812C95.8349 59.7661 95.4334 59.9585 94.9051 59.9585C94.7149 59.9585 94.5247 59.9371 94.3345 59.8943L94.25 59.8516V58.6541C94.3768 58.6969 94.4825 58.7183 94.6304 58.7183C94.8628 58.7183 95.053 58.6114 95.1587 58.4189C95.2643 58.2051 95.3489 57.8843 95.4123 57.4353Z" fill="#292935"/>
<path d="M102.935 59.1454C102.344 58.6108 102.048 57.8838 102.048 56.9643C102.048 56.0449 102.344 55.3178 102.935 54.7833C103.527 54.2487 104.309 53.9707 105.239 53.9707C106.19 53.9707 106.951 54.2487 107.542 54.7833C108.134 55.3178 108.43 56.0449 108.43 56.9643C108.43 57.8838 108.134 58.6322 107.542 59.1454C106.951 59.68 106.169 59.958 105.239 59.958C104.288 59.958 103.527 59.68 102.935 59.1454ZM106.591 58.2473C106.929 57.9052 107.098 57.4775 107.098 56.943C107.098 56.4084 106.929 55.9807 106.591 55.6386C106.253 55.2965 105.788 55.1468 105.239 55.1468C104.689 55.1468 104.224 55.3178 103.886 55.6386C103.548 55.9807 103.379 56.4084 103.379 56.943C103.379 57.4775 103.548 57.9052 103.886 58.2473C104.224 58.5895 104.668 58.7391 105.239 58.7391C105.788 58.7605 106.232 58.5895 106.591 58.2473Z" fill="#292935"/>
<path d="M115.616 58.205C115.616 58.8037 115.425 59.21 115.045 59.4452C114.665 59.7018 114.052 59.8087 113.228 59.8087H109.952V54.0566H112.953C114.496 54.0566 115.277 54.5485 115.277 55.5535C115.277 55.8742 115.193 56.1308 115.045 56.3233C114.897 56.5157 114.728 56.644 114.58 56.6868L114.326 56.7509V56.8151C114.432 56.8151 114.58 56.8578 114.77 56.922C114.918 56.9861 115.066 57.0503 115.172 57.1358C115.299 57.2213 115.404 57.371 115.489 57.5635C115.573 57.7773 115.616 57.9911 115.616 58.205ZM111.241 56.4515H112.974C113.608 56.4515 113.925 56.2377 113.925 55.7887C113.925 55.3396 113.587 55.1258 112.932 55.1258H111.241V56.4515ZM111.241 58.8037H113.164C113.904 58.8037 114.284 58.5685 114.284 58.0981C114.284 57.6276 113.904 57.3924 113.164 57.3924H111.241V58.8037Z" fill="#292935"/>
<path d="M123.011 59.8302H121.722V55.4253H121.659L119.081 59.8302H117.137V54.0781H118.426V58.4831H118.489L121.088 54.0781H123.033V59.8302H123.011Z" fill="#292935"/>
<path d="M130.641 59.8295H129.352V55.4245H129.289L126.711 59.8295H124.767V54.0774H126.056V58.4823H126.119L128.718 54.0774H130.662V59.8295H130.641ZM128.951 52.9013C128.655 53.1365 128.232 53.2434 127.704 53.2434C127.176 53.2434 126.753 53.1151 126.457 52.8799C126.161 52.6447 126.013 52.3026 126.013 51.8963V51.8535H126.985V51.8749C126.985 52.046 127.049 52.1743 127.176 52.2812C127.302 52.3881 127.493 52.4309 127.725 52.4309C127.958 52.4309 128.127 52.3881 128.253 52.2812C128.38 52.1743 128.444 52.046 128.444 51.8749V51.8535H129.416V51.8963C129.395 52.3453 129.247 52.6661 128.951 52.9013Z" fill="#292935"/>
<path d="M139.177 54.0781H140.762L137.952 56.9007L140.973 59.8302H139.346L136.43 57.0076V59.8302H135.162V54.0781H136.451V56.8579L139.177 54.0781Z" fill="#292935"/>
<path d="M142.285 59.1454C141.693 58.6108 141.397 57.8838 141.397 56.9643C141.397 56.0449 141.693 55.3178 142.285 54.7833C142.877 54.2487 143.659 53.9707 144.588 53.9707C145.539 53.9707 146.3 54.2487 146.892 54.7833C147.483 55.3178 147.779 56.0449 147.779 56.9643C147.779 57.8838 147.483 58.6322 146.892 59.1454C146.3 59.68 145.518 59.958 144.588 59.958C143.659 59.958 142.877 59.68 142.285 59.1454ZM145.941 58.2473C146.279 57.9052 146.448 57.4775 146.448 56.943C146.448 56.4084 146.279 55.9807 145.941 55.6386C145.603 55.2965 145.138 55.1468 144.588 55.1468C144.039 55.1468 143.574 55.3178 143.236 55.6386C142.898 55.9807 142.729 56.4084 142.729 56.943C142.729 57.4775 142.898 57.9052 143.236 58.2473C143.574 58.5895 144.018 58.7391 144.588 58.7391C145.138 58.7605 145.603 58.5895 145.941 58.2473Z" fill="#292935"/>
<path d="M152.829 57.4139L154.203 54.0781H156.316V59.8302H155.027V55.5963H154.964L153.759 58.4189H151.878L150.674 55.5963H150.61V59.8302H149.321V54.0781H151.435L152.808 57.4139H152.829Z" fill="#292935"/>
<path d="M163.818 59.8302H162.529V55.2542H159.38V59.8302H158.091V54.0781H163.839V59.8302H163.818Z" fill="#292935"/>
<path d="M165.866 57.4353L166.374 54.0781H170.98V59.8302H169.691V55.2542H167.515L167.177 57.4353C167.029 58.3548 166.817 58.9963 166.564 59.3812C166.289 59.7661 165.887 59.9585 165.359 59.9585C165.169 59.9585 164.979 59.9371 164.789 59.8943L164.704 59.8516V58.6541C164.831 58.6969 164.937 58.7183 165.084 58.7183C165.317 58.7183 165.507 58.6114 165.613 58.4189C165.718 58.2051 165.803 57.8843 165.866 57.4353Z" fill="#292935"/>
<path d="M178.905 56.9636L178.863 57.434H173.876C173.918 57.6051 173.981 57.7761 174.045 57.9258C174.129 58.0969 174.235 58.2252 174.341 58.3535C174.468 58.4818 174.658 58.6101 174.89 58.6956C175.123 58.7811 175.397 58.8453 175.672 58.8453C175.989 58.8453 176.264 58.7812 176.496 58.6742C176.729 58.5673 176.898 58.4604 176.982 58.3749L177.109 58.2252H178.631C178.588 58.3535 178.525 58.4604 178.461 58.5673C178.292 58.8453 178.102 59.0805 177.849 59.2943C177.489 59.5937 177.088 59.7862 176.581 59.8931C176.285 59.9572 175.968 60 175.651 60C174.7 60 173.939 59.722 173.348 59.1874C172.756 58.6529 172.46 57.9258 172.46 57.0063C172.46 56.0869 172.756 55.3598 173.348 54.8253C173.939 54.2907 174.721 54.0127 175.651 54.0127C176.602 54.0127 177.363 54.2907 177.954 54.8253C178.609 55.2957 178.905 56.0441 178.905 56.9636ZM176.496 55.2315C176.264 55.146 175.989 55.1032 175.693 55.1032C175.397 55.1032 175.144 55.146 174.911 55.2315C174.679 55.3171 174.489 55.424 174.362 55.5523C174.108 55.8089 173.96 56.0441 173.918 56.2579L173.897 56.3862H177.468C177.468 56.3007 177.426 56.151 177.32 55.9372C177.257 55.7875 177.151 55.6592 177.046 55.5309C176.919 55.424 176.729 55.3171 176.496 55.2315Z" fill="#292935"/>
<path d="M184.443 54.0781H186.028L183.218 56.9007L186.24 59.8302H184.612L181.696 57.0076V59.8302H180.407V54.0781H181.696V56.8579L184.443 54.0781Z" fill="#292935"/>
<path d="M187.548 59.1454C186.956 58.6108 186.66 57.8838 186.66 56.9643C186.66 56.0449 186.956 55.3178 187.548 54.7833C188.139 54.2487 188.921 53.9707 189.851 53.9707C190.379 53.9707 190.865 54.0562 191.288 54.2273C191.711 54.3984 192.049 54.6122 192.281 54.8688C192.746 55.382 193 55.8738 193 56.3229H191.626C191.605 56.2159 191.521 56.0876 191.436 55.9166C191.33 55.7669 191.225 55.66 191.119 55.5531C190.992 55.4461 190.823 55.3392 190.591 55.2751C190.379 55.1895 190.126 55.1682 189.872 55.1682C189.323 55.1682 188.879 55.3392 188.52 55.66C188.182 56.0021 188.013 56.4298 188.013 56.9643C188.013 57.4989 188.182 57.9266 188.52 58.2687C188.858 58.6108 189.302 58.7605 189.872 58.7605C190.126 58.7605 190.379 58.7178 190.591 58.6536C190.802 58.5895 190.992 58.4826 191.119 58.3543C191.373 58.119 191.521 57.9052 191.584 57.7341L191.626 57.6272H193C193 58.0549 192.767 58.5467 192.281 59.0599C192.049 59.3165 191.711 59.5303 191.288 59.7014C190.865 59.8725 190.379 59.958 189.851 59.958C188.9 59.958 188.139 59.68 187.548 59.1454Z" fill="#292935"/>
<path d="M38.5661 0.341797V18.7313C28.5283 18.7313 20.3925 10.4988 20.3925 0.341797H0V59.9368H20.4136C20.4136 49.7797 28.5494 41.5472 38.5872 41.5472V59.9368H58.9163V0.341797H38.5661Z" fill="#008B64"/>
</svg>
