<svg width="65" height="65" viewBox="0 0 65 65" fill="none" xmlns="http://www.w3.org/2000/svg">
<circle cx="32.5" cy="32.5" r="32.5" fill="#292935"/>
<path d="M41 31.1818C41 37.5455 33 43 33 43C33 43 25 37.5455 25 31.1818C25 29.0119 25.8429 26.9308 27.3431 25.3964C28.8434 23.862 30.8783 23 33 23C35.1217 23 37.1566 23.862 38.6569 25.3964C40.1571 26.9308 41 29.0119 41 31.1818Z" fill="white"/>
<path d="M32.9997 33.7694C34.4724 33.7694 35.6663 32.564 35.6663 31.0771C35.6663 29.5902 34.4724 28.3848 32.9997 28.3848C31.5269 28.3848 30.333 29.5902 30.333 31.0771C30.333 32.564 31.5269 33.7694 32.9997 33.7694Z" fill="#292935"/>
</svg>
