<svg width="64" height="71" viewBox="0 0 64 71" fill="none" xmlns="http://www.w3.org/2000/svg">
<path d="M64 0H0V71H64V0Z" fill="#292935"/>
<path d="M9.27248 50.4778C9.27248 50.7934 9.67209 50.9174 11.1382 50.9174C12.7509 50.9174 12.9546 50.8117 12.9546 50.6147C12.9546 50.4047 12.8443 50.2991 10.9046 50.2378C8.28904 50.1517 7.59362 49.7173 7.59362 48.7586C7.59362 47.7373 8.51739 47.2051 11.0162 47.2051C13.6759 47.2051 14.5128 47.539 14.5128 48.6164C14.5128 48.709 14.5128 48.8016 14.5063 48.9073C14.322 48.8956 13.9951 48.889 13.6811 48.889C13.3555 48.889 13.0285 48.8956 12.8443 48.9073V48.7899C12.8443 48.4742 12.6224 48.3686 10.9916 48.3686C9.48915 48.3686 9.26859 48.4612 9.26859 48.6477C9.26859 48.833 9.38536 48.9138 11.4483 49.0195C13.8926 49.1434 14.6425 49.5021 14.6425 50.5417C14.6425 51.6243 13.7875 52.1448 11.1589 52.1448C8.47457 52.1448 7.55859 51.6935 7.55859 50.7517C7.55859 50.6408 7.56508 50.5221 7.58325 50.3995C7.79862 50.4243 8.12427 50.4426 8.43305 50.4426C8.74703 50.4426 9.04284 50.436 9.27638 50.4243V50.4778H9.27248Z" fill="white"/>
<path d="M22.7122 51.9952C22.7368 51.3325 22.755 50.6895 22.7615 49.9225C22.7615 49.6068 22.7861 49.2664 22.8043 48.939L22.7615 48.9273C22.6071 49.2364 22.4358 49.5586 22.2257 49.8312L20.6 51.9978H19.7567L17.9351 49.5599C17.7314 49.2873 17.5537 48.9664 17.3993 48.669L17.3564 48.6807C17.3746 49.0029 17.3993 49.3238 17.4057 49.6773C17.4122 50.5434 17.4304 51.2673 17.4667 51.9978H15.8164C15.8527 51.3299 15.8657 50.6543 15.8657 49.6708C15.8657 48.6559 15.854 47.962 15.8346 47.3555H18.3087C18.6474 47.8564 19.1521 48.6116 19.7865 49.5338C19.9526 49.7686 20.1316 50.0347 20.3042 50.3073H20.3405C20.5066 50.0282 20.6662 49.7621 20.8205 49.5338C21.4109 48.6494 21.9649 47.8446 22.2983 47.3555H24.4832C24.465 47.962 24.4468 48.6546 24.4468 49.6708C24.4468 50.6543 24.4533 51.3299 24.4961 51.9978H22.7122V51.9952Z" fill="white"/>
<path d="M31.6059 51.9945C31.5501 51.8589 31.4022 51.5549 31.1998 51.178C30.5602 51.1715 29.9128 51.1714 29.4211 51.1714C28.9722 51.1714 28.3131 51.1715 27.6916 51.178C27.4827 51.5302 27.3167 51.8276 27.2362 51.9945H25.2109C26.0906 50.7697 27.7967 48.1701 28.1963 47.3535H30.7574C31.1765 48.1701 32.8813 50.7384 33.7986 51.9945H31.6059ZM29.0396 48.9553C28.8307 49.2892 28.5907 49.6792 28.3559 50.0692C28.7438 50.0758 29.1317 50.0758 29.4276 50.0758C29.748 50.0758 30.1658 50.0758 30.5849 50.0692C30.3565 49.6727 30.1165 49.2775 29.9011 48.9423C29.7104 48.6514 29.5755 48.4101 29.4704 48.2183L29.0396 48.9553Z" fill="white"/>
<path d="M39.7531 50.0934C40.8299 50.199 41.3229 50.3725 41.5202 51.0769C41.6304 51.4786 41.729 51.8139 41.8095 51.9926H40.2772C40.0009 51.9926 39.9516 51.9313 39.7972 51.3247C39.6622 50.7795 39.4586 50.6804 38.3389 50.6804H36.1359C36.1475 51.206 36.1722 51.6586 36.2098 51.9926H34.4492C34.4609 51.3182 34.4739 50.6686 34.4739 49.6721C34.4739 48.6886 34.4674 48.0194 34.4492 47.3516H39.0291C40.6976 47.3516 41.4786 47.7911 41.4786 48.7316C41.4786 49.5299 40.961 49.9382 39.7557 50.0686V50.0934H39.7531ZM38.4907 49.5247C39.4819 49.5247 39.8387 49.3577 39.8387 49.0173C39.8387 48.6651 39.4884 48.5464 38.5088 48.5464C38.0405 48.5464 36.7301 48.5529 36.1086 48.5712C36.1086 48.8868 36.1086 49.2025 36.1151 49.5051C36.5588 49.5247 37.4995 49.5247 38.4907 49.5247Z" fill="white"/>
<path d="M48.7212 47.3516C48.7095 47.5316 48.7095 47.8029 48.7095 48.0442C48.7095 48.279 48.7095 48.5699 48.7212 48.7681C47.8662 48.7433 47.0164 48.7433 46.2768 48.7433C46.2768 50.2969 46.2833 51.6391 46.3015 51.9991C46.0744 51.9808 45.6917 51.9808 45.4335 51.9808C45.1753 51.9808 44.8121 51.9808 44.5655 51.9991C44.5837 51.6404 44.5967 50.3034 44.5967 48.7433C43.8584 48.7433 43.0086 48.7433 42.1523 48.7681C42.1588 48.5699 42.1588 48.2855 42.1588 48.0442C42.1588 47.8029 42.1588 47.5368 42.1523 47.3516H48.7212Z" fill="white"/>
<path d="M11.4542 59.6287C8.58562 59.6287 7.41016 58.6009 7.41016 57.0852C7.41016 55.5069 8.70887 54.5664 11.4542 54.5664C14.1996 54.5664 15.4983 55.5069 15.4983 57.0852C15.4983 58.6022 14.3228 59.6287 11.4542 59.6287ZM13.7688 57.0917C13.7688 56.3299 13.172 55.9099 11.4542 55.9099C9.73643 55.9099 9.13962 56.3312 9.13962 57.0917C9.13962 57.8404 9.72994 58.2865 11.4542 58.2865C13.185 58.2865 13.7688 57.8404 13.7688 57.0917Z" fill="white"/>
<path d="M21.9132 57.5192C22.9901 57.6248 23.4831 57.7983 23.6803 58.5027C23.7906 58.9044 23.8892 59.2396 23.9696 59.4183H22.4374C22.161 59.4183 22.1117 59.357 21.9573 58.7505C21.8224 58.2053 21.6187 58.1061 20.499 58.1061H18.296C18.3077 58.6318 18.3323 59.0844 18.37 59.4183H16.6094C16.6211 58.744 16.634 58.0944 16.634 57.0978C16.634 56.1143 16.6275 55.4452 16.6094 54.7773H21.1893C22.8577 54.7773 23.6388 55.2169 23.6388 56.1574C23.6388 56.9557 23.1211 57.3639 21.9158 57.4944V57.5192H21.9132ZM20.6508 56.9504C21.6421 56.9504 21.9989 56.7835 21.9989 56.443C21.9989 56.0909 21.6486 55.9722 20.669 55.9722C20.2006 55.9722 18.8902 55.9787 18.2688 55.9969C18.2688 56.3126 18.2688 56.6283 18.2753 56.9309C18.719 56.9504 19.6609 56.9504 20.6508 56.9504Z" fill="white"/>
<path d="M30.5278 59.4183C30.472 59.2827 30.3241 58.9788 30.1217 58.6018C29.4821 58.5953 28.8347 58.5953 28.3429 58.5953C27.894 58.5953 27.2349 58.5953 26.6135 58.6018C26.4046 58.954 26.2385 59.2514 26.1581 59.4183H24.1328C25.0125 58.1935 26.7186 55.5939 27.1182 54.7773H29.6793C30.0983 55.5939 31.8032 58.1622 32.7204 59.4183H30.5278ZM27.9615 56.3791C27.7526 56.713 27.5126 57.1031 27.2778 57.4931C27.6657 57.4996 28.0536 57.4996 28.3494 57.4996C28.6699 57.4996 29.0877 57.4996 29.5067 57.4931C29.2784 57.0965 29.0384 56.7013 28.823 56.3661C28.6323 56.0752 28.4973 55.8339 28.3922 55.6421L27.9615 56.3791Z" fill="white"/>
<path d="M40.7835 54.7773C40.7653 55.3474 40.7588 56.1078 40.7588 57.0926C40.7588 58.114 40.7588 58.8001 40.7705 59.4197H39.0164C38.6531 59.0049 36.7394 57.6926 35.6807 56.9505C35.4225 56.7652 35.1579 56.5787 34.9425 56.3817C34.9671 56.7535 34.9736 57.1239 34.9853 57.5022C34.9918 58.4609 34.997 59.1353 35.0164 59.421H33.4336C33.4336 58.7962 33.4518 58.0905 33.4518 57.1005C33.4518 56.1169 33.4518 55.4113 33.4336 54.78H35.4407C35.6678 55.0774 37.7799 56.5865 38.7219 57.2374C38.9437 57.3861 39.1656 57.5035 39.3317 57.664C39.307 57.3235 39.2953 56.9961 39.2953 56.7418C39.2953 55.8822 39.2772 55.1087 39.2525 54.78H40.7835V54.7773Z" fill="white"/>
<path d="M45.9905 59.5673C43.3995 59.5673 41.8906 58.8186 41.8906 57.0668C41.8906 55.2224 43.4605 54.6289 45.8984 54.6289C48.2246 54.6289 49.6648 55.0124 49.6648 56.399C49.6648 56.442 49.6648 56.4916 49.6583 56.5346C49.474 56.5216 49.1471 56.5163 48.8331 56.5163C48.4945 56.5163 48.174 56.5229 47.9833 56.5346C47.9833 56.5098 47.9898 56.485 47.9898 56.4603C47.9898 56.0272 47.4047 55.8902 45.8906 55.8902C44.2896 55.8902 43.6253 56.219 43.6253 57.0968C43.6253 57.8951 44.2467 58.3216 45.9892 58.3216C47.2879 58.3216 47.8601 58.1234 48.0261 57.7033C47.1711 57.7033 46.019 57.7099 45.2561 57.7281C45.2626 57.6355 45.2626 57.4372 45.2626 57.3446C45.2626 57.1777 45.2626 57.029 45.2561 56.9116C46.2538 56.9298 47.2749 56.9246 48.0196 56.9246C48.475 56.9246 49.0602 56.9311 49.67 56.9116C49.7828 58.5825 49.3638 59.5673 45.9905 59.5673Z" fill="white"/>
<path d="M57.4558 54.7773C57.4493 54.913 57.4441 55.1295 57.4441 55.3226C57.4441 55.5208 57.4441 55.7439 57.4558 55.873C56.1752 55.8665 53.8606 55.8613 52.7098 55.8613V56.5735C54.0397 56.5735 56.3595 56.5735 57.3883 56.5552C57.3818 56.7965 57.3766 57.2922 57.3818 57.5518C56.3724 57.54 54.0267 57.527 52.7098 57.527V58.2509C53.8606 58.2509 56.2557 58.2444 57.4558 58.2392C57.4441 58.3879 57.4441 58.6227 57.4441 58.8392C57.4441 59.0375 57.4441 59.2657 57.4558 59.421H50.9492C50.9739 58.7896 50.9739 58.0905 50.9739 57.1005C50.9739 56.1169 50.9739 55.4048 50.9492 54.78H57.4558V54.7773Z" fill="white"/>
<path d="M15.3064 34.9191C14.9496 34.9191 14.6135 34.8787 14.2996 34.7952C13.2253 34.5082 12.478 33.7243 12.1342 32.5256C9.4083 30.4177 7.78912 27.4411 7.57245 24.1371C7.33502 20.5291 8.75699 16.9877 11.5763 14.165L11.7631 13.9785L11.8332 14.2329C12.9165 18.1878 18.5343 25.0371 24.3546 29.502L24.4947 29.609L24.3701 29.7342C21.0864 33.0238 17.7325 34.9191 15.3064 34.9191ZM11.6113 14.5681C8.97756 17.2969 7.65289 20.6778 7.87864 24.1162C8.09012 27.3472 9.68205 30.2572 12.3612 32.3117L12.4027 32.343L12.4157 32.3925C12.7258 33.5234 13.3862 34.2317 14.3774 34.4952C14.6706 34.5735 14.9872 34.6113 15.3219 34.6113C17.6262 34.6113 20.8412 32.7943 24.0276 29.6377C18.3332 25.2328 12.8607 18.5778 11.6113 14.5681Z" fill="white"/>
<path d="M14.5395 34.833C11.5671 32.5529 8.69461 29.0415 8.13672 27.0041L8.43253 26.9219C8.97615 28.9045 11.7993 32.3429 14.725 34.5878L14.5395 34.833Z" fill="white"/>
<path d="M18.8436 33.8258C13.7746 29.9374 8.8781 23.9555 7.92969 20.4884L8.2255 20.4062C9.15964 23.8172 14.0068 29.7274 19.0304 33.5805L18.8436 33.8258Z" fill="white"/>
<path d="M12.2111 32.5781C10.6334 31.9246 9.6344 30.7468 9.32172 29.1685C8.74826 26.274 10.5063 22.4431 14.0236 18.9199L14.2402 19.1378C10.7956 22.5879 9.07002 26.3145 9.62272 29.1072C9.91334 30.5785 10.8501 31.6794 12.3278 32.2912L12.2111 32.5781Z" fill="white"/>
<path d="M11.7206 32.8149C11.6376 32.8149 11.5688 32.7875 11.5182 32.7223C11.4132 32.5841 11.2367 32.3545 13.2218 30.0522C14.4919 28.5783 16.3291 26.6334 18.5321 24.4277L18.7488 24.6456C13.8432 29.5592 11.9412 31.9684 11.7855 32.4967C11.8504 32.4784 11.9723 32.4288 12.189 32.3023L12.3434 32.5684C12.1164 32.7001 11.8906 32.8149 11.7206 32.8149Z" fill="white"/>
<path d="M21.1637 35.4618C19.5808 35.4618 18.0123 35.2362 16.5254 34.7783C15.7041 34.957 14.9542 34.9675 14.3029 34.794C13.2131 34.5031 12.4606 33.7009 12.1246 32.4748L12.0039 32.0339L12.3659 32.3117C13.6244 33.277 15.0438 33.9931 16.5488 34.464C18.7349 33.9631 21.4608 32.2165 24.1581 29.5151L24.2528 29.4199L24.3592 29.5021C26.8049 31.3778 28.559 32.3157 29.7967 32.7565C30.8697 32.107 31.8739 31.3282 32.7769 30.423L32.9637 30.2365L33.0338 30.4908C33.484 32.1357 33.0442 32.8452 32.5953 33.1492C32.0049 33.5496 31.0526 33.5196 29.8292 33.0944C27.1863 34.6596 24.149 35.4618 21.1637 35.4618ZM17.1067 34.6283C21.1248 35.7136 25.6826 35.1162 29.4542 32.9574C28.018 32.3913 26.2496 31.3322 24.2775 29.8295C21.7748 32.3144 19.237 33.9879 17.1067 34.6283ZM12.5709 32.8465C12.9212 33.7153 13.5284 34.2696 14.3808 34.4966C14.8414 34.6192 15.3551 34.644 15.9143 34.5762C14.7272 34.1535 13.601 33.5783 12.5709 32.8465ZM30.1769 32.8818C31.6209 33.3148 32.2488 33.0122 32.4214 32.8948C33.0156 32.4918 32.9754 31.5956 32.8002 30.83C31.9932 31.6113 31.1123 32.2961 30.1769 32.8818Z" fill="white"/>
<path d="M18.3055 36.7049C17.4648 36.7049 16.1258 36.0475 14.543 34.8331L14.7285 34.5879C16.9808 36.3162 18.2808 36.5888 18.7103 36.2979C19.0074 36.0958 18.9438 35.5949 18.8387 35.2101L19.1345 35.1279C19.3746 36.0018 19.1293 36.3853 18.8828 36.5536C18.7323 36.6553 18.5377 36.7049 18.3055 36.7049Z" fill="white"/>
<path d="M25.2037 37.0087C23.8012 37.0087 21.5372 35.8882 18.8438 33.8234L19.0293 33.5781C22.2391 36.0395 24.9637 37.19 25.9679 36.5065C26.5297 36.1256 26.4207 35.219 26.2313 34.5251L26.5271 34.4429C26.9189 35.8751 26.5336 36.4947 26.1404 36.7621C25.8965 36.9278 25.5812 37.0087 25.2037 37.0087Z" fill="white"/>
<path d="M20.3747 36.9639C20.0581 36.9639 19.7416 36.9495 19.4276 36.9195C16.4786 36.643 13.8928 35.0817 12.1465 32.5224L12.3995 32.3477C14.0939 34.8299 16.6005 36.3443 19.4574 36.6117C22.8333 36.9287 26.3973 35.4782 29.2374 32.6333L29.4541 32.8511C26.8112 35.4978 23.5495 36.9639 20.3747 36.9639Z" fill="white"/>
<path d="M22.821 37.1987C22.764 37.1987 22.7069 37.1987 22.6498 37.1974C18.6979 37.1504 14.9717 35.4965 12.1602 32.5407L12.382 32.3281C15.1364 35.2226 18.7848 36.8426 22.655 36.8896C22.7108 36.8896 22.7666 36.8909 22.8236 36.8909C26.424 36.8909 29.7934 35.4991 32.3285 32.9594L32.5452 33.1773C29.9491 35.7756 26.5031 37.1987 22.821 37.1987Z" fill="white"/>
<path d="M21.1604 35.4606C17.9117 35.4606 14.7226 34.5097 12.1745 32.5558L12.133 32.5245L12.12 32.4749C11.0159 28.4443 14.6383 20.6376 20.1964 15.0718L20.2912 14.9766L20.3975 15.0587C26.2645 19.5589 31.9303 26.4812 33.0292 30.4909L33.0526 30.577L32.989 30.6409C29.8207 33.8132 25.438 35.4606 21.1604 35.4606ZM12.4015 32.3431C18.166 36.7285 27.244 35.895 32.7088 30.487C31.5748 26.5438 26.0582 19.8197 20.3184 15.3861C14.9069 20.8515 11.374 28.4169 12.4015 32.3431Z" fill="white"/>
<path d="M18.8355 35.208C18.2918 33.2253 15.4699 29.7869 12.543 27.5421L12.7285 27.2969C15.7009 29.5769 18.5721 33.0883 19.1313 35.1258L18.8355 35.208Z" fill="white"/>
<path d="M26.2307 34.525C25.2965 31.114 20.4494 25.2038 15.4258 21.3507L15.6113 21.1055C20.6803 24.9938 25.5755 30.9758 26.5252 34.4428L26.2307 34.525Z" fill="white"/>
<path d="M15.3715 33.1382C14.2025 33.1382 13.1308 32.9569 12.2109 32.576L12.3277 32.2916C16.7727 34.1308 24.8465 31.1594 30.3294 25.668L30.5461 25.8858C26.1089 30.3298 19.9786 33.1382 15.3715 33.1382Z" fill="white"/>
<path d="M12.3458 32.5662L12.1914 32.3001C14.1894 31.13 20.3016 25.6829 25.8169 20.1602L26.0336 20.378C20.5027 25.9177 14.3633 31.3857 12.3458 32.5662Z" fill="white"/>
<path d="M12.5362 32.8352L12.1742 32.5574C9.42501 30.4482 7.79026 27.4572 7.57229 24.1376C7.33746 20.557 8.73608 17.0417 11.5126 14.2282C11.1013 12.6446 11.5333 11.9559 11.9744 11.6559C13.2978 10.7572 16.4466 12.029 20.396 15.0591L20.5361 15.166L20.4115 15.2912C14.9248 20.7879 11.3374 28.4603 12.4143 32.3943L12.5362 32.8352ZM13.0565 11.699C12.5284 11.699 12.2534 11.8398 12.147 11.9116C11.484 12.3616 11.6099 13.422 11.8317 14.2334L11.8551 14.3195L11.7915 14.3834C9.03708 17.1435 7.64624 20.6001 7.87718 24.1167C8.07958 27.2081 9.54696 30.0073 12.0211 32.0435C11.2751 27.9399 14.7756 20.561 20.0703 15.1973C16.2365 12.2794 14.1269 11.699 13.0565 11.699Z" fill="white"/>
<path d="M12.5433 27.5441C10.291 25.8171 8.99096 25.5432 8.56152 25.8341C8.26441 26.0363 8.32798 26.5371 8.43307 26.9219L8.13726 27.0041C7.89724 26.1302 8.14245 25.7467 8.38896 25.5784C9.08697 25.1049 10.7087 25.748 12.7288 27.2989L12.5433 27.5441Z" fill="white"/>
<path d="M15.4231 21.3528C12.2133 18.8914 9.49129 17.7409 8.48449 18.4244C7.92271 18.8053 8.03169 19.7118 8.22111 20.4058L7.9253 20.488C7.53348 19.0557 7.91882 18.4362 8.31323 18.1688C9.46404 17.3874 12.1925 18.4857 15.6099 21.1075L15.4231 21.3528Z" fill="white"/>
<path d="M12.1405 32.5233C8.2093 26.7644 9.54435 17.5385 15.1155 11.957L15.3321 12.1749C9.85962 17.6559 8.54144 26.7057 12.3935 32.3485L12.1405 32.5233Z" fill="white"/>
<path d="M12.1583 32.5428C6.50411 26.6026 6.44572 17.2215 12.0259 11.6309L12.2426 11.8487C6.77916 17.3206 6.84014 26.5087 12.3801 32.3288L12.1583 32.5428Z" fill="white"/>
<path d="M24.2731 29.8281L24.1667 29.7459C18.2998 25.2457 12.634 18.3234 11.5351 14.3137L11.5117 14.2276L11.5753 14.1637C17.149 8.58092 26.4865 7.72133 32.3885 12.2489L32.43 12.2802L32.443 12.3297C33.5471 16.3603 29.9247 24.167 24.3678 29.7315L24.2731 29.8281ZM11.8542 14.3189C12.9882 18.2621 18.5048 24.9862 24.2459 29.4198C29.6561 23.9544 33.189 16.389 32.1602 12.4628C26.3957 8.07743 17.319 8.91093 11.8542 14.3189Z" fill="white"/>
<path d="M28.949 23.6969C23.88 19.8085 18.9849 13.8266 18.0352 10.3595L18.331 10.2773C19.2651 13.6883 24.1123 19.5985 29.1359 23.4503L28.949 23.6969Z" fill="white"/>
<path d="M31.8325 17.5088C28.8601 15.2287 25.9876 11.716 25.4297 9.67983L25.7255 9.59766C26.2691 11.5803 29.091 15.0187 32.018 17.2635L31.8325 17.5088Z" fill="white"/>
<path d="M14.2362 19.1367L14.0195 18.9189C19.5816 13.3479 27.8059 10.3478 32.3534 12.23L32.2366 12.5157C27.7929 10.6752 19.7178 13.6453 14.2362 19.1367Z" fill="white"/>
<path d="M18.7479 24.6449L18.5312 24.4271C24.0609 18.8887 30.2002 13.4207 32.2177 12.2402L32.3721 12.5063C30.3728 13.6764 24.262 19.1209 18.7479 24.6449Z" fill="white"/>
<path d="M31.516 33.4324C29.8995 33.4324 27.2826 32.1358 24.1675 29.7475L24.0273 29.6406L24.1519 29.5153C29.6387 24.02 33.226 16.3476 32.1479 12.4135L32.0272 11.9727L32.3892 12.2505C35.1384 14.3597 36.7732 17.3506 36.9912 20.6703C37.226 24.2508 35.8274 27.7662 33.0509 30.5784C33.4622 32.1619 33.0301 32.8506 32.589 33.1507C32.3101 33.3398 31.9494 33.4324 31.516 33.4324ZM24.4944 29.6079C30.2225 33.9646 32.0986 33.1102 32.419 32.8937C33.082 32.4437 32.9562 31.3832 32.7343 30.5719L32.711 30.4858L32.7745 30.4219C35.529 27.6631 36.9185 24.2065 36.6876 20.6899C36.4852 17.5985 35.0178 14.7993 32.5436 12.7631C33.2896 16.868 29.7892 24.2456 24.4944 29.6079Z" fill="white"/>
<path d="M35.3131 26.8837C33.9106 26.8837 31.6466 25.7632 28.9531 23.6983L29.1387 23.4531C32.3485 25.9145 35.0718 27.065 36.0773 26.3815C36.639 26.0006 36.5301 25.094 36.3406 24.4001L36.6364 24.3179C37.0283 25.7501 36.6429 26.3697 36.2498 26.6371C36.0059 26.8015 35.6906 26.8837 35.3131 26.8837Z" fill="white"/>
<path d="M35.5985 19.3826C34.7577 19.3826 33.4188 18.7252 31.8359 17.5108L32.0215 17.2656C34.2738 18.9926 35.5738 19.2666 36.0033 18.9757C36.3004 18.7735 36.2368 18.2726 36.1317 17.8878L36.4275 17.8056C36.6675 18.6796 36.4223 19.0631 36.1758 19.2313C36.024 19.3318 35.8307 19.3826 35.5985 19.3826Z" fill="white"/>
<path d="M29.4471 32.8501L29.2305 32.6323C34.703 27.1512 36.0212 18.1014 32.1691 12.4599L32.4221 12.2852C36.3533 18.044 35.0196 27.2686 29.4471 32.8501Z" fill="white"/>
<path d="M32.543 33.1749L32.3263 32.9571C37.7884 27.4852 37.7275 18.2984 32.1875 12.4782L32.4094 12.2656C38.0635 18.2058 38.1232 27.5856 32.543 33.1749Z" fill="white"/>
<path d="M32.8019 30.8287L32.7318 30.5743C31.6485 26.6194 26.0307 19.7701 20.2104 15.3052L20.0703 15.1982L20.1949 15.073C23.9613 11.3007 27.8198 9.36112 30.2641 10.0133C31.3384 10.3003 32.087 11.0842 32.4295 12.2829C35.1554 14.3908 36.7746 17.3674 36.9913 20.6714C37.2274 24.2781 35.8067 27.8195 32.9887 30.6422L32.8019 30.8287ZM20.5361 15.1669C26.2305 19.5745 31.7043 26.2281 32.9537 30.2391C35.5875 27.5116 36.9108 24.1307 36.6851 20.6923C36.4723 17.4614 34.8817 14.5513 32.2025 12.4969L32.161 12.4656L32.148 12.416C31.8379 11.2851 31.1775 10.5768 30.1863 10.3133C27.8717 9.69374 24.1857 11.5525 20.5361 15.1669Z" fill="white"/>
<path d="M36.3401 24.4C35.4059 20.989 30.5588 15.0788 25.5352 11.2257L25.7207 10.9805C30.7897 14.8688 35.6849 20.8507 36.6346 24.3178L36.3401 24.4Z" fill="white"/>
<path d="M36.1284 17.8877C35.5848 15.905 32.7616 12.4666 29.8359 10.2218L30.0215 9.97656C32.9939 12.2566 35.8663 15.768 36.4242 17.8055L36.1284 17.8877Z" fill="white"/>
<path d="M30.5428 25.8861L30.3262 25.6682C33.7695 22.2194 35.4951 18.4928 34.9424 15.7001C34.6518 14.2288 33.7163 13.1279 32.2373 12.5161L32.354 12.2305C33.9317 12.884 34.9307 14.0618 35.2434 15.6401C35.8168 18.5333 34.0588 22.3642 30.5428 25.8861Z" fill="white"/>
<path d="M26.0331 20.3803L25.8164 20.1625C30.7207 15.2501 32.6227 12.8409 32.7784 12.3127C32.7135 12.3309 32.5915 12.3805 32.3749 12.507L32.2205 12.2409C32.5591 12.0427 32.8925 11.8874 33.0456 12.087C33.1507 12.2253 33.3272 12.4548 31.3421 14.7571C30.0719 16.2297 28.2361 18.1746 26.0331 20.3803Z" fill="white"/>
<path d="M20.3147 15.3858L20.2083 15.3037C17.7639 13.428 16.0085 12.4901 14.7708 12.0492C13.6978 12.6988 12.6936 13.4775 11.7893 14.3828L11.6025 14.5693L11.5324 14.3149C11.0822 12.6701 11.5221 11.9605 11.971 11.6566C12.5613 11.2562 13.5136 11.2862 14.7371 11.7114C18.7759 9.31915 23.7463 8.70869 28.0382 10.0287C28.8608 9.85003 29.6107 9.8396 30.2607 10.0131C31.3505 10.304 32.1043 11.1062 32.4403 12.3323L32.561 12.7732L32.199 12.4953C30.9405 11.5301 29.5212 10.814 28.0161 10.3431C25.83 10.844 23.1041 12.5905 20.4081 15.2906L20.3147 15.3858ZM15.1107 11.8497C16.547 12.4158 18.3153 13.4749 20.2874 14.9776C22.7888 12.4927 25.3266 10.8192 27.457 10.18C23.4401 9.09479 18.8823 9.6922 15.1107 11.8497ZM13.053 11.6983C12.525 11.6983 12.2499 11.8392 12.1435 11.911C11.5493 12.314 11.5895 13.2101 11.7647 13.9758C12.5717 13.1945 13.4539 12.511 14.3894 11.924C13.8276 11.7557 13.389 11.6983 13.053 11.6983ZM28.6506 10.2309C29.8364 10.6535 30.9626 11.2288 31.994 11.9605C31.6437 11.0918 31.0365 10.5374 30.1841 10.3105C29.7235 10.1879 29.2085 10.1631 28.6506 10.2309Z" fill="white"/>
<path d="M25.5286 11.2278C22.3188 8.76639 19.5942 7.61592 18.59 8.29942C18.0282 8.6803 18.1372 9.58685 18.3266 10.2808L18.0308 10.363C17.639 8.93074 18.0243 8.31116 18.4174 8.04376C19.5682 7.26243 22.2967 8.36072 25.7141 10.9825L25.5286 11.2278Z" fill="white"/>
<path d="M29.8324 10.2181C27.58 8.49108 26.2787 8.21716 25.8506 8.50935C25.5535 8.71153 25.617 9.21241 25.7221 9.5972L25.4263 9.67938C25.1863 8.80544 25.4315 8.42195 25.678 8.25369C26.3747 7.7815 27.9965 8.42326 30.0179 9.97417L29.8324 10.2181Z" fill="white"/>
<path d="M32.1666 12.46C30.4721 9.97777 27.9655 8.46338 25.1086 8.19598C21.7314 7.88032 18.1687 9.3295 15.33 12.1744L15.1133 11.9565C18.0182 9.04775 21.6717 7.56597 25.1371 7.88945C28.0862 8.16598 30.6719 9.72733 32.4196 12.2865L32.1666 12.46Z" fill="white"/>
<path d="M32.1853 12.4799C29.4296 9.58552 25.7826 7.96547 21.9124 7.91851C18.242 7.87677 14.8142 9.26986 12.2401 11.8486L12.0234 11.6308C14.6157 9.03376 18.0616 7.60938 21.7437 7.60938C21.8008 7.60938 21.8579 7.60937 21.915 7.61068C25.8669 7.65764 29.5931 9.3116 32.4059 12.2673L32.1853 12.4799Z" fill="white"/>
<path d="M22.2348 37.3567C21.9689 37.3567 21.6886 37.345 21.4771 37.3293C21.1216 37.3045 20.6247 37.2524 19.9592 37.1689C19.5673 37.1193 19.0795 37.011 18.7811 36.9341C18.2907 36.8063 17.6342 36.6067 17.1464 36.4358C16.7247 36.2884 15.8061 35.9036 15.0095 35.4445C14.641 35.2332 13.6628 34.6697 12.6599 33.8062C12.1552 33.3718 11.3897 32.6727 10.5698 31.62C10.2986 31.2731 10.0897 30.9691 10.0884 30.9665C9.87824 30.66 9.87824 30.66 9.55777 30.1474C9.30997 29.7508 9.04919 29.2304 8.93761 29.0087C8.77154 28.676 8.59639 28.2821 8.49 28.0004C8.41086 27.7917 8.32912 27.5582 8.24998 27.326C8.13581 27.0182 8.03461 26.7038 7.94768 26.3855C7.82962 25.9238 7.67522 25.3146 7.61165 24.849C7.55197 24.4159 7.4858 23.9216 7.45466 23.5407C7.44169 23.3894 7.40147 22.8624 7.41185 22.4502L7.41315 22.385C7.42223 22.0054 7.4339 21.5332 7.46115 21.1693C7.4858 20.851 7.5377 20.4128 7.59349 20.0541C7.80497 18.7132 8.14619 17.744 8.16046 17.7036C8.26166 17.4205 8.44848 16.8922 8.60547 16.5192C8.71964 16.2479 8.90517 15.8539 9.10238 15.4665C9.3943 14.8913 9.84321 14.1648 10.2182 13.6561C10.6982 13.0065 11.3119 12.2825 11.7828 11.8143C12.4964 11.1047 12.7754 10.8921 13.7043 10.1877C14.0274 9.94248 14.4841 9.66595 14.798 9.48072C15.0848 9.31115 15.4896 9.09463 15.8282 8.93027C16.1551 8.77114 16.6209 8.57026 17.014 8.41896C17.2372 8.33287 17.507 8.24547 17.7691 8.16199C17.8833 8.12547 17.9936 8.09025 18.0922 8.05634C18.4593 7.93372 18.9446 7.82937 19.3701 7.74198C19.6011 7.69502 19.8787 7.65328 20.1473 7.61415C20.2615 7.59719 20.3704 7.58154 20.4703 7.56589C20.879 7.50067 21.4187 7.47589 21.8443 7.46284C22.2089 7.4498 22.6357 7.45371 22.9302 7.47067C23.3558 7.49545 23.9487 7.55154 24.4378 7.61415C25.132 7.70285 25.7521 7.8672 26.4073 8.04199C26.8964 8.17243 27.5451 8.402 28.0213 8.612C28.4624 8.80766 28.792 8.96028 29.0268 9.08158C29.3239 9.2342 29.7209 9.45724 30.0141 9.63725C30.319 9.82378 30.668 10.0533 30.9029 10.2229C31.2532 10.4773 31.3712 10.5621 31.8967 10.999C31.9538 11.0473 32.2535 11.3016 32.6466 11.6838C32.9463 11.976 33.1967 12.2512 33.3174 12.383C33.4627 12.5434 33.787 12.9217 33.9907 13.1878C34.3203 13.6156 34.3786 13.7043 34.7069 14.1895C34.9534 14.5561 35.3893 15.3074 35.6255 15.807C35.8071 16.1905 36.1107 16.8335 36.3585 17.5953C36.6284 18.4223 36.8139 19.1501 36.9112 19.758C37.0098 20.3736 37.1214 21.0689 37.1421 22.0667C37.1655 23.1611 37.0682 24.0246 37.0085 24.442C36.9475 24.8685 36.8346 25.6642 36.4986 26.7821C36.2962 27.4564 35.9303 28.3225 35.6592 28.9304C35.5346 29.2095 35.3348 29.5813 35.0481 30.0665C34.9236 30.2791 34.7588 30.5243 34.6005 30.7604C34.5317 30.8648 34.4643 30.9639 34.4046 31.0565C34.1814 31.3996 33.8415 31.8183 33.5976 32.0961L33.5535 32.147C33.2603 32.4809 32.897 32.8957 32.5791 33.1827C32.5078 33.2479 32.4299 33.3183 32.3495 33.3927C32.1315 33.5923 31.885 33.8179 31.6774 33.9875C31.3907 34.2223 30.9677 34.5588 30.6226 34.7792L30.3852 34.9319C30.1387 35.091 29.8584 35.271 29.6275 35.4027C29.2707 35.6049 28.8036 35.8449 28.4663 36.0002C27.274 36.548 26.2451 36.8141 26.1323 36.8428C25.4304 37.0189 24.5118 37.1767 23.937 37.2576C23.6244 37.3019 23.2325 37.3176 22.8861 37.3319C22.772 37.3371 22.663 37.3411 22.5618 37.3463C22.4619 37.3541 22.349 37.3567 22.2348 37.3567ZM10.5036 31.0187C10.5853 31.1309 10.6917 31.2757 10.8111 31.4283C11.6155 32.4601 12.3654 33.1449 12.8597 33.5714C13.8405 34.4166 14.8006 34.9684 15.1613 35.1758C15.9411 35.6245 16.835 36.0002 17.2476 36.1436C17.7276 36.3106 18.375 36.5076 18.8589 36.6341C19.2404 36.7332 19.6867 36.8232 19.9981 36.8624C20.6572 36.9458 21.1489 36.998 21.4992 37.0215C21.7924 37.0424 22.2219 37.058 22.5488 37.041C22.6513 37.0358 22.7616 37.0306 22.8757 37.0267C23.2144 37.0124 23.5997 36.9967 23.8968 36.955C24.4638 36.8754 25.3707 36.7202 26.0609 36.5467C26.1712 36.5193 27.1754 36.2597 28.3431 35.7223C28.6739 35.5697 29.1319 35.3349 29.4809 35.1367C29.7053 35.0101 29.9804 34.8314 30.2243 34.6749L30.463 34.521C30.7952 34.3097 31.2078 33.9797 31.4893 33.7514C31.6904 33.5883 31.933 33.3653 32.1484 33.1683C32.2301 33.094 32.308 33.0222 32.3806 32.957C32.6855 32.6818 33.0436 32.2748 33.3303 31.9461L33.3744 31.8953C33.6106 31.6252 33.9401 31.2196 34.1542 30.8896C34.2139 30.797 34.2826 30.6952 34.3527 30.5909C34.5084 30.3574 34.6693 30.1161 34.7899 29.9113C35.0702 29.4365 35.2648 29.0752 35.3841 28.8065C35.6514 28.2065 36.0108 27.3534 36.2093 26.6947C36.5388 25.599 36.6504 24.819 36.7101 24.4003C36.7685 23.992 36.8632 23.1468 36.8398 22.0745C36.8191 21.0989 36.7101 20.4141 36.6128 19.8101C36.5181 19.2166 36.3351 18.5058 36.0705 17.6931C35.8279 16.9509 35.5294 16.3183 35.3517 15.9413C35.1208 15.4535 34.6965 14.7217 34.4591 14.3696C34.1321 13.8856 34.075 13.7995 33.7507 13.3782C33.5509 13.1187 33.2356 12.7495 33.0942 12.593C32.9761 12.4625 32.7296 12.1925 32.4364 11.9056C32.0511 11.5299 31.7592 11.2834 31.7047 11.2377C31.187 10.8073 31.0702 10.7225 30.7264 10.4734C30.4981 10.3077 30.1568 10.0833 29.8584 9.90074C29.5717 9.72464 29.1825 9.50681 28.8906 9.35681C28.6609 9.23811 28.3379 9.08811 27.9019 8.89506C27.4388 8.69027 26.8082 8.46722 26.3321 8.34069C25.6872 8.16851 25.0775 8.00677 24.4028 7.92068C23.9189 7.85938 23.3363 7.80329 22.916 7.7785C22.6292 7.76155 22.2141 7.75894 21.8586 7.77068C21.4421 7.78503 20.9141 7.8085 20.5222 7.87111C20.4223 7.88677 20.3108 7.90372 20.1966 7.92068C19.9319 7.95981 19.6582 8.00025 19.4363 8.0459C19.1353 8.10851 18.5748 8.2233 18.1934 8.35113C18.0922 8.38504 17.9819 8.42026 17.8664 8.45809C17.6082 8.54157 17.341 8.62635 17.1269 8.70983C16.7416 8.85853 16.2849 9.0555 15.9644 9.21072C15.6375 9.36985 15.2314 9.58508 14.9563 9.74812C14.6475 9.93074 14.2025 10.2007 13.8924 10.4355C12.9765 11.1308 12.7001 11.3408 12.0021 12.0347C11.5415 12.4939 10.9382 13.2021 10.4673 13.8413C10.1014 14.3369 9.66416 15.0478 9.37873 15.6087C9.18412 15.9909 9.00248 16.377 8.8909 16.6418C8.73781 17.007 8.55228 17.5288 8.45238 17.8092C8.4381 17.8483 8.10726 18.7914 7.89968 20.1036C7.84519 20.4493 7.79329 20.8876 7.76994 21.1941C7.74269 21.5502 7.73231 22.0185 7.72323 22.3941L7.72193 22.4593C7.71544 22.7267 7.73101 23.122 7.76345 23.5159C7.79718 23.9189 7.87373 24.4759 7.91914 24.8072C7.98012 25.2559 8.13191 25.8547 8.24349 26.2929C8.24479 26.2994 8.24609 26.3047 8.24868 26.3112C8.32263 26.5525 8.42513 26.8747 8.53411 27.1995C9.26196 29.1704 10.5477 30.9026 12.2927 32.2605C12.3161 32.2787 12.3381 32.2957 12.3615 32.314L12.176 32.5592C11.5623 32.087 11.0044 31.5731 10.5036 31.0187Z" fill="white"/>
</svg>
