<svg xmlns="http://www.w3.org/2000/svg" viewBox="0 0 231.38 231.38"><defs><style>.cls-1{fill:#292935;}.cls-2{fill:none;stroke:#292935;}</style></defs><title>f</title><g id="Слой_2" data-name="Слой 2"><g id="Слой_1-2" data-name="Слой 1"><path class="cls-1" d="M115.69,1a114.69,114.69,0,0,1,81.1,195.79A114.69,114.69,0,0,1,34.59,34.59,114,114,0,0,1,115.69,1m0-1A115.69,115.69,0,1,0,231.38,115.69,115.69,115.69,0,0,0,115.69,0Z"/><path class="cls-2" d="M132,94.56h1.81V80.27L132.22,80a75,75,0,0,0-8.91-.5,15.55,15.55,0,0,0-11.75,4.73c-2.93,3.14-4.49,7.66-4.49,13.22v7.81H97.61v15.82h9.46v30.73h15.2V121.13h8.87l.19-1.6,1.44-12.21.24-2H122.27V98.7a5.25,5.25,0,0,1,.66-3.19c.32-.43,1-1,3.09-1Z"/></g></g></svg>