<svg xmlns="http://www.w3.org/2000/svg" viewBox="0 0 231.38 231.38"><defs><style>.cls-1{fill:#292935;}.cls-2{fill:none;stroke:#292935;}</style></defs><title>t</title><g id="Слой_2" data-name="Слой 2"><g id="Слой_1-2" data-name="Слой 1"><path class="cls-1" d="M115.69,1a114.69,114.69,0,0,1,81.1,195.79A114.69,114.69,0,0,1,34.59,34.59,114,114,0,0,1,115.69,1m0-1A115.69,115.69,0,1,0,231.38,115.69,115.69,115.69,0,0,0,115.69,0Z"/><path class="cls-2" d="M108.94,125.47l-1.31,17.16A4.71,4.71,0,0,0,111.3,141l8.83-7.82,18.29,12.42c3.35,1.73,5.71.82,6.62-2.87l12-52.15h0c1.06-4.6-1.8-6.4-5.07-5.27l-70.55,25c-4.82,1.73-4.75,4.22-.82,5.35l18,5.2,41.9-24.31c2-1.21,3.76-.54,2.29.67Z"/></g></g></svg>